<svg id="Group_404" data-name="Group 404" xmlns="http://www.w3.org/2000/svg" xmlns:xlink="http://www.w3.org/1999/xlink" width="17.547" height="15.422" viewBox="0 0 17.547 15.422">
  <defs>
    <clipPath id="clip-path">
      <rect id="Rectangle_191" data-name="Rectangle 191" width="17.547" height="15.422" fill="#7f839a"/>
    </clipPath>
  </defs>
  <g id="Group_325" data-name="Group 325" clip-path="url(#clip-path)">
    <path id="Path_380" data-name="Path 380" d="M17.547,5.312l-.683,1.1-.957-.552v9.566H1.668V5.851L.678,6.4,0,5.313,8.5,0V1.75c0,.324-.014.65,0,.973.016.275-.073.381-.36.446A2.426,2.426,0,0,0,6.518,4.39h1.57c.045.464.168.863.691.854.492-.009.648-.359.653-.83h1.6a2.362,2.362,0,0,0-1.6-1.236c-.34-.077-.4-.218-.4-.519C9.057,1.806,9.047.952,9.047,0l8.5,5.311M4.515,14.454A1.588,1.588,0,0,0,6.051,13.2a3.186,3.186,0,0,0-.812-2.83.874.874,0,0,0-1.49,0,3.451,3.451,0,0,0-.892,2.4,1.659,1.659,0,0,0,1.659,1.681m4.236,0A1.588,1.588,0,0,0,10.333,13.2a3.192,3.192,0,0,0-.849-2.864.85.85,0,0,0-1.422,0,3.434,3.434,0,0,0-.924,2.439,1.661,1.661,0,0,0,1.614,1.677m4.3,0a1.586,1.586,0,0,0,1.564-1.278,3.211,3.211,0,0,0-.836-2.825.863.863,0,0,0-1.457,0,3.43,3.43,0,0,0-.907,2.445,1.658,1.658,0,0,0,1.636,1.654M8.526,7.095h.487V5.951l-.487.037Zm2.538-1.066-.9-.752-.337.4.878.734.356-.383m-4.226.386.877-.748-.327-.413-.9.782.348.379" transform="translate(0 -0.001)" fill="#7f839a"/>
  </g>
</svg>
