<svg id="Icon_ionic-ios-notifications" data-name="Icon ionic-ios-notifications" xmlns="http://www.w3.org/2000/svg" width="17.494" height="21.881" viewBox="0 0 17.494 21.881">
  <path id="Path_283" data-name="Path 283" d="M17.24,31.234c1.7,0,2.63-1.2,2.63-2.9H14.6C14.6,30.031,15.534,31.234,17.24,31.234Z" transform="translate(-8.504 -9.354)" fill="#7f839a"/>
  <path id="Path_284" data-name="Path 284" d="M24.034,20.134c-.842-1.11-2.5-1.761-2.5-6.732,0-5.1-2.253-7.153-4.353-7.645-.2-.049-.339-.115-.339-.323V5.276a1.334,1.334,0,1,0-2.669,0v.159c0,.2-.142.273-.339.323-2.105.5-4.353,2.543-4.353,7.645,0,4.971-1.657,5.616-2.5,6.732a1.086,1.086,0,0,0,.87,1.739H23.17A1.086,1.086,0,0,0,24.034,20.134Z" transform="translate(-6.761 -3.93)" fill="#7f839a"/>
</svg>
