<svg xmlns="http://www.w3.org/2000/svg" width="21.435" height="21.44" viewBox="0 0 21.435 21.44">
  <path id="Icon_ionic-ios-settings" data-name="Icon ionic-ios-settings" d="M24.165,15.217a2.758,2.758,0,0,1,1.769-2.573,10.933,10.933,0,0,0-1.323-3.187,2.8,2.8,0,0,1-1.122.24,2.752,2.752,0,0,1-2.517-3.874A10.9,10.9,0,0,0,17.791,4.5a2.756,2.756,0,0,1-5.147,0A10.933,10.933,0,0,0,9.457,5.823,2.752,2.752,0,0,1,6.939,9.7a2.7,2.7,0,0,1-1.122-.24A11.175,11.175,0,0,0,4.5,12.65,2.757,2.757,0,0,1,4.506,17.8a10.933,10.933,0,0,0,1.323,3.187,2.753,2.753,0,0,1,3.634,3.634A11,11,0,0,0,12.65,25.94a2.751,2.751,0,0,1,5.135,0,10.933,10.933,0,0,0,3.187-1.323,2.756,2.756,0,0,1,3.634-3.634A11,11,0,0,0,25.929,17.8,2.771,2.771,0,0,1,24.165,15.217Zm-8.9,4.46a4.466,4.466,0,1,1,4.466-4.466A4.464,4.464,0,0,1,15.268,19.677Z" transform="translate(-4.5 -4.5)" fill="#7f839a"/>
</svg>
