<svg id="Group_411" data-name="Group 411" xmlns="http://www.w3.org/2000/svg" width="139.044" height="63.845" viewBox="0 0 139.044 63.845">
  <path id="Path_300" data-name="Path 300" d="M234.045,55.381c-4.331.235-7.668.4-11,.6a2.237,2.237,0,0,1-2.685-1.708,6.475,6.475,0,0,0-9.144-3.192,4.137,4.137,0,0,0-1.945,2.945c.052.907,1.352,2.169,2.363,2.515,3.177,1.086,6.547,1.617,9.71,2.737a44.986,44.986,0,0,1,8.967,4.071c3.947,2.483,4.946,6.672,4.242,10.94-1.381,8.373-6.676,11.207-14.089,12.267a35.6,35.6,0,0,1-15.146-.964c-6.323-1.85-10.141-7.082-10.445-14.047,3.662,0,7.319.026,10.974-.015,1.134-.012,1.6.269,2.013,1.513,1.794,5.408,7.128,7.4,11.482,4.48,1.386-.93,2.5-2,2.255-3.89a4.1,4.1,0,0,0-3.094-3.568c-3.117-.966-6.359-1.577-9.4-2.726a32.8,32.8,0,0,1-8.5-4.192c-6.478-4.995-4.887-15.321,2.662-18.541,5.333-2.275,10.909-2.111,16.529-1.492,4.083.45,8.041,1.38,10.577,4.829,1.537,2.092,2.365,4.7,3.681,7.433" transform="translate(-95.715 -23.114)" fill="#0099ec"/>
  <path id="Path_301" data-name="Path 301" d="M13.752,84.186c-4.225,0-8.4.056-12.563-.084C.754,84.087,0,82.907,0,82.268c0-5.005.213-10.01.247-15.015q.085-12.43.006-24.861c-.013-1.791.274-2.474,2.389-2.4,8.664.284,17.337.322,26.006.406,5,.049,4.986.011,5.009,4.9.006,1.294.147,2.588.246,4.2-1.817,0-3.978.006-6.138,0-3.885-.014-7.773.044-11.654-.087-1.855-.063-2.63.6-2.616,2.431.046,6.188-.673,5.961,5.631,5.9,3.275-.031,6.552.023,9.827,0,1.125-.007,1.95.173,1.924,1.577-.042,2.3-.011,4.6-.011,6.88-4.988,0-9.85.074-14.708-.037-1.929-.044-2.752.478-2.72,2.536.063,4.094-.12,8.191-.136,12.287a24.079,24.079,0,0,0,.45,3.2" transform="translate(0 -21.633)" fill="#46bc5c"/>
  <path id="Path_302" data-name="Path 302" d="M104.4,76.122,93.532,61.57l-.631.139V85.535c-4.67,0-8.906.057-13.135-.084-.446-.015-1.217-1.191-1.22-1.832-.027-5.389.107-10.779.162-16.17q.12-11.728.2-23.457c.006-.825,0-1.65,0-2.156,5.024,0,9.911-.044,14.8.059.565.012,1.271.732,1.644,1.3,4.749,7.227,9.425,14.5,14.175,21.728,1.272,1.935,1.374,3.565-.332,5.354-1.643,1.724-3.037,3.685-4.785,5.844" transform="translate(-37.636 -22.632)" fill="#0099ec"/>
  <path id="Path_303" data-name="Path 303" d="M160.261,85.962H147.114V61.353L143.076,66.4l-7.021-10.451c3.073-4.372,6.08-8.728,9.2-13a3.162,3.162,0,0,1,2.175-1.1c3.58-.113,7.168.015,10.749-.076,2.062-.053,2.783.715,2.669,2.8q-.4,7.365-.474,14.748c-.073,8.456-.02,16.913-.025,25.369,0,.369-.05.738-.089,1.276" transform="translate(-68.753 -22.599)" fill="#46bc5c"/>
  <path id="Path_304" data-name="Path 304" d="M81.015,7.589C81.021,3.623,84.323.013,87.955,0c4.487-.016,8.426,3.76,8.312,7.967a7.593,7.593,0,0,1-7.52,7.451,7.685,7.685,0,0,1-7.732-7.828" transform="translate(-38.973 0)" fill="#0099ec"/>
  <path id="Path_305" data-name="Path 305" d="M174.258,8.762c0,4.449-2.989,7.663-7.116,7.659a8.142,8.142,0,0,1-7.928-7.8,7.475,7.475,0,0,1,7.494-7.482c4.479.172,8.022,3.327,7.55,7.62" transform="translate(-81.284 -0.615)" fill="#46bc5c"/>
  <rect id="Rectangle_184" data-name="Rectangle 184" width="129.32" height="63.845" transform="translate(0 0)" fill="none"/>
</svg>
