<svg id="Group_936" data-name="Group 936" xmlns="http://www.w3.org/2000/svg" xmlns:xlink="http://www.w3.org/1999/xlink" width="19.096" height="21.739" viewBox="0 0 19.096 21.739">
  <defs>
    <clipPath id="clip-path">
      <rect id="Rectangle_3627" data-name="Rectangle 3627" width="19.096" height="21.739" fill="#46BC5C"/>
    </clipPath>
  </defs>
  <g id="Group_936-2" data-name="Group 936" clip-path="url(#clip-path)">
    <path id="Path_743" data-name="Path 743" d="M92.859,87.146c.094-.595.183-1.158.273-1.721q.516-3.228,1.033-6.456c.078-.489.153-.979.234-1.467a.68.68,0,0,1,.667-.609c.084-.007.168,0,.252,0h5.892c.66,0,.841.146.945.792q.768,4.762,1.529,9.525a.4.4,0,0,1-.009.074c-.363.067-.734.138-1.106.2-.924.166-1.848.329-2.772.5-.119.022-.186.011-.244-.121a1.454,1.454,0,0,0-1.4-.937,30.163,30.163,0,0,0-5.146.2c-.037.006-.074.008-.152.017m3.7-7.7c.106-.012.166-.016.224-.027a.324.324,0,0,0,.29-.372.307.307,0,0,0-.337-.3c-.344,0-.688-.008-1.031,0a.291.291,0,0,0-.307.3.3.3,0,0,0,.272.359c.072.013.144.022.2.031.014.3.015.571.042.843a2.363,2.363,0,0,0,2.243,2.173,2.319,2.319,0,0,0,2.436-1.968c.062-.341.06-.693.088-1.049.039,0,.092-.006.144-.015a.331.331,0,0,0,.315-.354.319.319,0,0,0-.344-.32c-.344-.007-.688-.01-1.031,0a.334.334,0,0,0-.036.661l.225.035c0,.251.007.487,0,.723a1.68,1.68,0,0,1-1.49,1.6,1.661,1.661,0,0,1-1.805-1.228,7.226,7.226,0,0,1-.092-1.09" transform="translate(-87.183 -72.189)" fill="#46BC5C"/>
    <path id="Path_744" data-name="Path 744" d="M63.505,254.348c.619,0,1.238.016,1.856,0a1.242,1.242,0,0,0,1.3-1.079c.036-.156.133-.162.243-.182l3.942-.706c.548-.1,1.1-.2,1.646-.287a.664.664,0,0,1,.819.666,1.445,1.445,0,0,1-.848,1.358c-.72.415-1.45.813-2.177,1.217-1.253.7-2.516,1.376-3.757,2.095a6.589,6.589,0,0,1-5.172.652c-1.171-.309-2.321-.7-3.478-1.056a.229.229,0,0,1-.125-.172c-.007-1.289,0-2.577-.008-3.866,0-.129.061-.165.166-.2a15.088,15.088,0,0,1,4.4-.759c.924-.011,1.849-.007,2.773,0a.871.871,0,0,1,.926.716.767.767,0,0,1-.814.956c-1.184-.007-2.368-.008-3.552-.011a1.017,1.017,0,0,0-.16.009.332.332,0,0,0,.015.66,1.7,1.7,0,0,0,.206.006h1.787v-.011" transform="translate(-54.221 -236.613)" fill="#46BC5C"/>
    <path id="Path_745" data-name="Path 745" d="M0,249.446V242.57c.071-.006.137-.017.2-.017q1.1,0,2.2,0c.338,0,.448.114.449.457q0,3,0,5.991c0,.342-.112.46-.448.461-.741,0-1.481,0-2.222,0-.052,0-.1-.009-.18-.017m1.041-.663a.348.348,0,0,0,.345-.348.335.335,0,0,0-.336-.328.339.339,0,0,0-.345.32.351.351,0,0,0,.337.356" transform="translate(0 -227.725)" fill="#46BC5C"/>
    <path id="Path_746" data-name="Path 746" d="M146.614,4.01h-.626c0-.086-.011-.167-.011-.247,0-.5.008-.991-.006-1.487a1.679,1.679,0,0,0-3.354-.031c-.021.578,0,1.158,0,1.758h-.731a17.44,17.44,0,0,1,.161-2.322,2.346,2.346,0,0,1,4.557.241,18.816,18.816,0,0,1,.014,2.088" transform="translate(-133.209 0)" fill="#7f839a"/>
  </g>
</svg>
