<svg id="Group_407" data-name="Group 407" xmlns="http://www.w3.org/2000/svg" xmlns:xlink="http://www.w3.org/1999/xlink" width="16.939" height="16.936" viewBox="0 0 16.939 16.936">
  <defs>
    <clipPath id="clip-path">
      <rect id="Rectangle_193" data-name="Rectangle 193" width="16.939" height="16.936" fill="#46bc5c"/>
    </clipPath>
  </defs>
  <g id="Group_329" data-name="Group 329" clip-path="url(#clip-path)">
    <path id="Path_385" data-name="Path 385" d="M8.339,0H8.6c.09.053.183.1.268.159q3.846,2.648,7.688,5.3a2.708,2.708,0,0,1,.379.394V16.406c-.117.261-.282.5-.586.516-.5.027-1.01.007-1.531.007v-.206q0-4.093,0-8.185a.7.7,0,0,0-.754-.77H2.873a.884.884,0,0,0-.228.023.712.712,0,0,0-.525.764q0,4.084,0,8.169v.21H.785A.707.707,0,0,1,0,16.146Q0,11.127,0,6.109A.681.681,0,0,1,.327,5.49Q3.617,3.232,6.9.966C7.376.639,7.859.322,8.339,0" transform="translate(0)" fill="#46bc5c"/>
    <path id="Path_386" data-name="Path 386" d="M89.363,303.257c0,.221-.016.424,0,.624a.5.5,0,0,0,.552.433.516.516,0,0,0,.479-.481c.007-.132,0-.264,0-.4,0-.054,0-.107.008-.174.433,0,.856-.011,1.277,0,.193.007.305.164.309.384.005.352,0,.705,0,1.058,0,.545,0,1.091,0,1.636,0,.329-.121.446-.449.447H88.194c-.311,0-.439-.128-.439-.442q0-1.322,0-2.644c0-.308.137-.446.44-.447.379,0,.757,0,1.169,0" transform="translate(-83.877 -289.856)" fill="#46bc5c"/>
    <path id="Path_387" data-name="Path 387" d="M201.2,303.257c0,.2,0,.371,0,.542a.517.517,0,0,0,.479.515.506.506,0,0,0,.558-.464c.016-.19,0-.382,0-.587.45,0,.873-.012,1.295.005.2.008.309.177.309.419q0,1.272,0,2.545c0,.072,0,.144,0,.215a.351.351,0,0,1-.37.343q-1.752,0-3.5,0c-.237,0-.364-.144-.366-.411,0-.523,0-1.047,0-1.57,0-.369,0-.738,0-1.107,0-.315.13-.443.441-.444.379,0,.757,0,1.156,0" transform="translate(-190.785 -289.857)" fill="#46bc5c"/>
    <path id="Path_388" data-name="Path 388" d="M145.381,207.43c0,.176,0,.334,0,.493a.53.53,0,1,0,1.059,0c0-.158,0-.317,0-.489.437,0,.86-.01,1.282,0a.327.327,0,0,1,.3.352q0,1.4,0,2.809a.34.34,0,0,1-.363.362q-1.752,0-3.5,0a.34.34,0,0,1-.364-.361q0-1.4,0-2.809a.343.343,0,0,1,.352-.36c.4-.008.8,0,1.234,0" transform="translate(-137.44 -198.262)" fill="#46bc5c"/>
  </g>
</svg>
