<svg id="Group_451" data-name="Group 451" xmlns="http://www.w3.org/2000/svg" xmlns:xlink="http://www.w3.org/1999/xlink" width="14.678" height="19.856" viewBox="0 0 14.678 19.856">
  <defs>
    <clipPath id="clip-path">
      <rect id="Rectangle_3386" data-name="Rectangle 3386" width="14.678" height="19.856" fill="#46bc5c"/>
    </clipPath>
  </defs>
  <g id="Group_484" data-name="Group 484" clip-path="url(#clip-path)">
    <path id="Path_418" data-name="Path 418" d="M2.908,24.617a7.081,7.081,0,0,0,.212.973,2.866,2.866,0,0,0,2.657,2.036,25.84,25.84,0,0,0,3.281-.019,2.949,2.949,0,0,0,2.655-2.735c.006-.079.014-.158.023-.255a2.768,2.768,0,0,1,2.94,2.8c0,1.635,0,3.27,0,4.905q0,3.954,0,7.909a2.857,2.857,0,0,1-2.295,2.86,2.505,2.505,0,0,1-.516.056q-4.516,0-9.031,0a2.752,2.752,0,0,1-2.8-2.357,2.951,2.951,0,0,1-.031-.5Q0,33.877,0,27.46A2.761,2.761,0,0,1,2.84,24.612c.026,0,.053,0,.068,0m8.986,10.824a4.678,4.678,0,1,0-4.7,4.671,4.674,4.674,0,0,0,4.7-4.671" transform="translate(0 -23.295)" fill="#46bc5c"/>
    <path id="Path_419" data-name="Path 419" d="M90.185,2.793c-.461,0-.921.008-1.382,0a1.434,1.434,0,0,1-1.365-1.235,1.368,1.368,0,0,1,.995-1.5A1.526,1.526,0,0,1,88.827,0c.894,0,1.789-.008,2.683,0A1.445,1.445,0,0,1,92.887,1.11a1.36,1.36,0,0,1-.728,1.524,1.858,1.858,0,0,1-.673.153c-.433.024-.867.007-1.3.007Z" transform="translate(-82.751 0.001)" fill="#46bc5c"/>
    <path id="Path_420" data-name="Path 420" d="M82.094,198.531c.835-.511,1.651-1.017,2.474-1.509a1.38,1.38,0,0,1,.5-.179.472.472,0,0,1,.541.341c.015.037.033.073.05.109a.794.794,0,0,1-.327,1.1c-.941.595-1.887,1.182-2.827,1.779a1.125,1.125,0,0,1-1.517-.281c-.3-.47-.61-.94-.891-1.424a.743.743,0,0,1,.064-.9.791.791,0,0,1,.9-.286,1.064,1.064,0,0,1,.459.354c.211.273.38.578.58.892" transform="translate(-75.698 -186.307)" fill="#46bc5c"/>
  </g>
</svg>
