<svg id="Group_334" data-name="Group 334" xmlns="http://www.w3.org/2000/svg" xmlns:xlink="http://www.w3.org/1999/xlink" width="17.73" height="19.856" viewBox="0 0 17.73 19.856">
  <defs>
    <clipPath id="clip-path">
      <rect id="Rectangle_195" data-name="Rectangle 195" width="17.73" height="19.856" fill="#7f839a"/>
    </clipPath>
  </defs>
  <g id="Group_333" data-name="Group 333" clip-path="url(#clip-path)">
    <path id="Path_395" data-name="Path 395" d="M0,45.294A.631.631,0,0,1,.662,44.8c1.438.014,2.875.006,4.313.006H5.2v.255q0,1.467,0,2.933c0,.521.207.781.62.782H7.7c.4,0,.611-.264.611-.771q0-1.467,0-2.933V44.82c.067,0,.123-.011.179-.011h4.434c.383,0,.584.258.583.749a20.158,20.158,0,0,0,4.023,12.593.771.771,0,0,1-.164,1.186.655.655,0,0,1-.222.028q-6.192,0-12.384,0a.62.62,0,0,1-.523-.276A20.326,20.326,0,0,1,.593,51.2a22.3,22.3,0,0,1-.562-4.065A1.982,1.982,0,0,0,0,46.926V45.294m8.333,7.455h-1.9c-.571,0-1.143,0-1.714,0a.65.65,0,0,0-.512.916.546.546,0,0,0,.562.41q3.549,0,7.1,0a.9.9,0,0,0,.121,0,.68.68,0,0,0,.426-.953.527.527,0,0,0-.528-.37q-1.774,0-3.549,0m0,2.647c-.86,0-1.719,0-2.579,0a.672.672,0,0,0-.013,1.321c1.719,0,3.438.007,5.158-.008a.612.612,0,0,0,.394-.223.673.673,0,0,0,.1-.688.527.527,0,0,0-.512-.4H8.33m.495-3.969c.686,0,1.373,0,2.059,0a.605.605,0,0,0,.549-.648A.613.613,0,0,0,10.9,50.1q-2.068-.008-4.136,0a.545.545,0,0,0-.5.433.647.647,0,0,0,.528.888c.675,0,1.35,0,2.025,0" transform="translate(0 -42.163)" fill="#7f839a"/>
    <path id="Path_396" data-name="Path 396" d="M0,186.369c.026.063.057.123.077.189A21.434,21.434,0,0,0,3.5,193.228a1.554,1.554,0,0,0,1.282.687q4.252,0,8.5,0H13.5c0,.274.019.538-.005.8a.551.551,0,0,1-.488.525c-.052,0-.1,0-.156,0q-6.1,0-12.193.006a.635.635,0,0,1-.662-.49v-8.382" transform="translate(0 -175.385)" fill="#7f839a"/>
    <path id="Path_397" data-name="Path 397" d="M135.787,5.286h-1.038v-.21q0-2.171,0-4.343c0-.446.21-.737.525-.734s.512.294.513.728q0,2.172,0,4.343v.215" transform="translate(-128.512 0.001)" fill="#7f839a"/>
  </g>
</svg>
