<svg id="Group_332" data-name="Group 332" xmlns="http://www.w3.org/2000/svg" xmlns:xlink="http://www.w3.org/1999/xlink" width="15.73" height="21.103" viewBox="0 0 15.73 21.103">
  <defs>
    <clipPath id="clip-path">
      <rect id="Rectangle_194" data-name="Rectangle 194" width="15.73" height="21.103" fill="#7f839a"/>
    </clipPath>
  </defs>
  <g id="Group_331" data-name="Group 331" clip-path="url(#clip-path)">
    <path id="Path_389" data-name="Path 389" d="M.45,234.292a.823.823,0,0,1-.449-.84c.014-1.332,0-2.665.006-4a2.862,2.862,0,0,1,1.972-2.834.17.17,0,0,0,.136-.19c-.008-.267,0-.534,0-.817H6.662c0,.272.006.539,0,.8a.209.209,0,0,0,.162.239,2.78,2.78,0,0,1,1.846,2.164,3.338,3.338,0,0,1,.055.655c0,1.326-.006,2.652.008,3.977a.822.822,0,0,1-.449.84Z" transform="translate(0 -213.189)" fill="#7f839a"/>
    <path id="Path_390" data-name="Path 390" d="M174.279,127.886a.719.719,0,0,1-.442-.429.616.616,0,0,1,.578-.806c.4-.007.808,0,1.224,0v-1.28h-1.759a.622.622,0,0,1-.157-1.234c.019,0,.037-.012.073-.024v-.262q0-5.039,0-10.077a.665.665,0,0,1,.2-.582.815.815,0,0,1,.44-.178c1.229-.014,2.459-.009,3.689-.007a.609.609,0,0,1,.627.538,1.1,1.1,0,0,1,.012.184c0,.575,0,1.151,0,1.749h-.633c-.405,0-.811,0-1.216,0a.618.618,0,1,0,0,1.235c.6.005,1.208,0,1.83,0v1.235h-.469c-.453,0-.907,0-1.36,0a.618.618,0,1,0,0,1.235c.536.006,1.072,0,1.607,0h.231v1.235h-1.77a.625.625,0,1,0-.009,1.237c.522,0,1.044,0,1.566,0h.219v2.449c.066.018.118.03.168.046a.617.617,0,0,1-.185,1.212c-.536,0-1.072,0-1.607,0h-.213v1.279H178.1a.62.62,0,0,1,.294,1.18.751.751,0,0,0-.077.056Z" transform="translate(-163.648 -106.783)" fill="#7f839a"/>
    <path id="Path_391" data-name="Path 391" d="M19.4,146.279h-2.82a.628.628,0,0,1-.692-.687q-.007-.957,0-1.915a.631.631,0,0,1,.708-.693h5.6a.639.639,0,0,1,.714.709q0,.937,0,1.873a.638.638,0,0,1-.71.713H19.4" transform="translate(-15.007 -135.11)" fill="#7f839a"/>
    <path id="Path_392" data-name="Path 392" d="M197.858,3.751c.219,0,.4,0,.588,0a.617.617,0,0,1,.645.588c.016.2,0,.41,0,.631h-3.736a6.611,6.611,0,0,1,.057-.8.57.57,0,0,1,.553-.416c.2-.005.409,0,.635,0V3.489c0-.934,0-1.869,0-2.8A.629.629,0,1,1,197.857.7c0,.927,0,1.855,0,2.782v.267" transform="translate(-184.601 0)" fill="#7f839a"/>
  </g>
</svg>
