<svg id="Group_856" data-name="Group 856" xmlns="http://www.w3.org/2000/svg" xmlns:xlink="http://www.w3.org/1999/xlink" width="73" height="73" viewBox="0 0 73 73">
  <defs>
    <clipPath id="clip-path">
      <rect id="Rectangle_251" data-name="Rectangle 251" width="35.366" height="40.812" fill="#fff"/>
    </clipPath>
  </defs>
  <circle id="Ellipse_34" data-name="Ellipse 34" cx="36.5" cy="36.5" r="36.5" fill="#00c5c5"/>
  <g id="Group_392" data-name="Group 392" transform="translate(19 16)">
    <g id="Group_391" data-name="Group 391" clip-path="url(#clip-path)">
      <path id="Path_420" data-name="Path 420" d="M25.59,39.174c-.687.119-1.716.3-2.747.475a31.512,31.512,0,0,1-12.109-.32,5.565,5.565,0,0,0-4.426.787,3.984,3.984,0,0,1-5.1-.5,4.037,4.037,0,0,1-.491-5.18A5.716,5.716,0,0,0,1.7,30.007c-.155-.849-.317-1.7-.445-2.551a42.787,42.787,0,0,1-.322-11.35c.213-1.826.509-3.643.792-5.46a5.543,5.543,0,0,0-.912-4.12,4.067,4.067,0,0,1-.114-4.7A4,4,0,0,1,6.74,1.049a5.164,5.164,0,0,0,4.617,1.414,49.87,49.87,0,0,1,11.954-.1c.521.057,1.04.127,1.562.173a4.262,4.262,0,0,0,3.5-1.3A4.037,4.037,0,0,1,33.646.78a3.963,3.963,0,0,1,1.062,5.431,6.528,6.528,0,0,0-.946,5.292,44.051,44.051,0,0,1,.517,14.456c-.186,1.4-.435,2.8-.662,4.193a5.541,5.541,0,0,0,.933,4.157,3.944,3.944,0,0,1,.161,4.553A4.039,4.039,0,0,1,29.1,40.154a5.786,5.786,0,0,0-3.506-.98M34.126,4.112a3.271,3.271,0,0,0-.835-1.885,2.693,2.693,0,0,0-3.942,0,5.479,5.479,0,0,1-4.462,1.668c-.861-.068-1.718-.172-2.578-.256a48.284,48.284,0,0,0-10.9.182,6,6,0,0,1-5.44-1.7,2.5,2.5,0,0,0-1.76-.746A2.6,2.6,0,0,0,1.743,2.737a2.581,2.581,0,0,0,.14,2.924,6.918,6.918,0,0,1,1.125,5.533,44.974,44.974,0,0,0-.042,18.142,7.188,7.188,0,0,1-1.084,5.828,2.659,2.659,0,0,0,.275,3.464A2.678,2.678,0,0,0,5.582,39a7.135,7.135,0,0,1,5.611-.957,29.714,29.714,0,0,0,11.227.323c.977-.163,1.945-.4,2.927-.5a6.748,6.748,0,0,1,4.442,1.112,2.709,2.709,0,0,0,4.177-1.671,2.774,2.774,0,0,0-.5-2.251,6.719,6.719,0,0,1-1.129-5.128c.235-1.4.478-2.79.665-4.192a42.049,42.049,0,0,0-.514-13.948A7.64,7.64,0,0,1,33.6,5.515a5.783,5.783,0,0,0,.523-1.4" transform="translate(0 0)" fill="#fff"/>
      <path id="Path_421" data-name="Path 421" d="M115.687,132.8a17,17,0,0,1,.288,1.711,7.743,7.743,0,0,1-.059,1.724,1.105,1.105,0,0,1-.878.939,1.123,1.123,0,0,1-1.218-.511,6.847,6.847,0,0,1-.672-1.265c-.192-.468-.312-.967-.49-1.535-.147.257-.246.466-.377.652a5.962,5.962,0,0,1-.745.97.927.927,0,0,1-1.588-.417,7.358,7.358,0,0,1-.2-1.463,12.008,12.008,0,0,0-.206-1.705c-.2.371-.383.752-.606,1.109a4.075,4.075,0,0,1-.6.768,1.1,1.1,0,0,1-1.976-.525,10.745,10.745,0,0,1-.07-2.144,2.936,2.936,0,0,0-.015-.737c-.2.192-.411.381-.611.578a16.456,16.456,0,0,1-1.336,1.3,2.356,2.356,0,0,1-1.078.434,1.006,1.006,0,0,1-1.155-.974,2.949,2.949,0,0,1,.132-1.167A24.086,24.086,0,0,1,107.311,122a28.08,28.08,0,0,1,2.145-1.822,3.872,3.872,0,0,1-1.419-2.1,4.446,4.446,0,0,1-.078-1.705,1.389,1.389,0,0,1,1.784-1.13,9.9,9.9,0,0,1,1.975.841c.606.322,1.159.742,1.78,1.148-.01-.234-.026-.413-.025-.591a1.094,1.094,0,0,1,1.416-1.129,2.928,2.928,0,0,1,2,2.5,11.415,11.415,0,0,0,1.363,4.3,1.51,1.51,0,0,0,.5.5c1.2.75,2.408,1.486,3.619,2.219.319.193.6.4.531.828s-.41.537-.77.62q-2.232.515-4.463,1.036c-.122.028-.241.068-.39.11a3.235,3.235,0,0,0,1.01,2.228,3.973,3.973,0,0,1,.769.839,1.9,1.9,0,0,1-.491,2.541,1.861,1.861,0,0,1-2.568-.21c-.077-.08-.139-.174-.209-.262Zm-4.51.963c.238-.5.423-.943.655-1.361a.886.886,0,0,1,1.608-.086,3,3,0,0,1,.364.715c.193.546.353,1.1.532,1.655.076.233.166.46.25.69l.12-.027c-.031-.284-.041-.572-.1-.851a17.492,17.492,0,0,1-.352-4.856,4.633,4.633,0,0,1,.428-1.579c.736-1.559,1.525-3.095,2.313-4.629a.517.517,0,0,0-.064-.641,4.8,4.8,0,0,0-5.1-1.884,6.991,6.991,0,0,0-3.94,2.5,24.984,24.984,0,0,0-4.322,7.5.942.942,0,0,0-.029.232l.086.061c.306-.324.6-.664.922-.968a7.22,7.22,0,0,1,1.285-1.087,1.208,1.208,0,0,1,1.862.952,7.246,7.246,0,0,1-.04,1.3c-.015.351-.034.7-.052,1.054a1.061,1.061,0,0,0,.361-.423c.146-.29.27-.592.421-.879a5.38,5.38,0,0,1,.568-.984.892.892,0,0,1,1.485.073,3.183,3.183,0,0,1,.476,1.162c.134.745.175,1.506.264,2.352m3.746-16.694c0,.113,0,.169,0,.225.038.534.064,1.073-.476,1.4s-1.007.058-1.476-.19c-.062-.033-.125-.067-.184-.106-.629-.409-1.244-.84-1.89-1.221a10.888,10.888,0,0,0-1.3-.606c-.217-.092-.345.011-.378.249-.173,1.24,1.178,2.968,2.607,2.675a5.231,5.231,0,0,1,1.687-.074c.785.1,1.554.33,2.308.5-.18-1.78-.353-2.365-.9-2.849m2.179,9.173,3.36-.786-2.289-1.41-1.071,2.2m-.979,2.639-.084.019c.026.317.036.635.082.949a4.216,4.216,0,0,0,.773,2.123c.264.329.581.385.844.177a.6.6,0,0,0,.033-.932,2.3,2.3,0,0,0-.308-.29,3.967,3.967,0,0,1-1.186-1.677c-.048-.124-.1-.247-.153-.37" transform="translate(-93.41 -105.388)" fill="#fff"/>
      <path id="Path_422" data-name="Path 422" d="M225.5,208.849a.677.677,0,1,1-.682-.672.686.686,0,0,1,.682.672" transform="translate(-205.098 -190.483)" fill="#fff"/>
    </g>
  </g>
</svg>
