<svg id="Group_855" data-name="Group 855" xmlns="http://www.w3.org/2000/svg" xmlns:xlink="http://www.w3.org/1999/xlink" width="73" height="73" viewBox="0 0 73 73">
  <defs>
    <clipPath id="clip-path">
      <rect id="Rectangle_250" data-name="Rectangle 250" width="36.329" height="40.812" fill="#fff"/>
    </clipPath>
  </defs>
  <circle id="Ellipse_33" data-name="Ellipse 33" cx="36.5" cy="36.5" r="36.5" fill="#82e700"/>
  <g id="Group_390" data-name="Group 390" transform="translate(18 16)">
    <g id="Group_389" data-name="Group 389" clip-path="url(#clip-path)">
      <path id="Path_418" data-name="Path 418" d="M7.957,6.767c-.782,0-1.424,0-2.066,0-1.173,0-1.715-.349-1.731-1.1S4.706,4.53,5.848,4.522c.269,0,.539,0,.965,0C6.228,3.634,4.788,2.961,5.956,1.9,7.184.783,7.692,2.472,8.724,2.953c0-.617-.01-1.152,0-1.686C8.744.512,9.053-.023,9.887,0c.784.022,1.058.556,1.074,1.261.013.588,0,1.176,0,1.893.289-.146.471-.221.636-.324a11.353,11.353,0,0,1,12.768-.164,2.087,2.087,0,0,0,2.1.22,30.332,30.332,0,0,1,2.975-1.1,2.021,2.021,0,0,1,2.376.595,1.828,1.828,0,0,1-.089,2.33c-.251.393-.432.833-.7,1.211a6.965,6.965,0,0,0-1.391,5.867,9.215,9.215,0,0,1-1.21,5.932,1.256,1.256,0,0,0,2.021.219c1.365-1.035,2.778-2.006,4.165-3.012.615-.446,1.091-.376,1.211.413,1.045,6.84.78,13.474-3.658,19.236-3.079,4-7.4,5.81-12.325,6.165-5.44.392-10.413-.882-14.439-4.794C2.162,32.806.735,28.8.225,24.425a28.168,28.168,0,0,1,.334-9.2c.225-1.051.492-1.141,1.366-.486C3.37,15.82,4.819,16.9,6.245,18.009A1.1,1.1,0,0,0,7.9,17.928,11.874,11.874,0,0,1,7.957,6.767M18.169,38.544c.405,0,.812.024,1.215,0,6.069-.42,10.618-3.1,13.075-8.847A23.349,23.349,0,0,0,34.039,19.53c-.03-.856-.448-1.053-1.151-.574-.8.544-1.6,1.088-2.343,1.7a1.416,1.416,0,0,1-2.067.026c-1.142-.914-2.4-1.686-3.537-2.6a1.484,1.484,0,0,0-2.15.025c-1.121.89-2.341,1.656-3.47,2.537a1.44,1.44,0,0,1-2.068.025c-1.142-.913-2.395-1.687-3.545-2.59a1.448,1.448,0,0,0-2.074-.024c-1.1.87-2.3,1.6-3.389,2.488a1.634,1.634,0,0,1-2.388.063,23.954,23.954,0,0,0-2.483-1.662c-.677-.423-1.051-.226-1.08.583-.033.933-.045,1.872.007,2.8a19.318,19.318,0,0,0,2.831,9.753c3.07,4.695,7.647,6.421,13.038,6.46M26.481,16.4c2-3.454.9-8.469-2.4-11.2a9.315,9.315,0,0,0-11.953.032C8.826,8.047,7.8,13.076,9.877,16.552c.659-.467,1.337-.9,1.963-1.4a1.2,1.2,0,0,1,1.678.006c1.3.968,2.641,1.875,3.936,2.847a1.226,1.226,0,0,0,1.68-.009c1.3-.969,2.642-1.874,3.935-2.848a1.2,1.2,0,0,1,1.677.014c.555.441,1.152.83,1.735,1.244m1.652-9.923,1.132-2.075-.179-.141-1.97.779,1.017,1.437" transform="translate(0 0.001)" fill="#fff"/>
      <path id="Path_419" data-name="Path 419" d="M97.292,42.706c.287.4.737.765.823,1.2.132.669-.322,1.113-1.023,1.121s-1.164-.428-1.043-1.1c.079-.44.521-.815.8-1.219l.443,0" transform="translate(-78.069 -34.719)" fill="#fff"/>
    </g>
  </g>
</svg>
