<svg id="Group_399" data-name="Group 399" xmlns="http://www.w3.org/2000/svg" xmlns:xlink="http://www.w3.org/1999/xlink" width="44.734" height="44.666" viewBox="0 0 44.734 44.666">
  <defs>
    <clipPath id="clip-path">
      <rect id="Rectangle_256" data-name="Rectangle 256" width="44.734" height="44.666" fill="#fff"/>
    </clipPath>
  </defs>
  <g id="Group_398" data-name="Group 398" clip-path="url(#clip-path)">
    <path id="Path_442" data-name="Path 442" d="M38.193,3.459A12.7,12.7,0,0,1,43,.606,13.094,13.094,0,0,1,47.082,0c2.984,0,5.968,0,8.952,0a2.057,2.057,0,0,1,2.243,1.606,4.742,4.742,0,0,1-.111,1.628,4.815,4.815,0,0,1-.44,1c.158.009.306.023.455.024,1.674,0,3.348-.009,5.022.005a2.127,2.127,0,0,1,2.256,1.876A5.805,5.805,0,0,1,65.4,7.2a2.158,2.158,0,0,1-.021,4.113c.228,1.566-.074,2.168-1.392,2.847a6.681,6.681,0,0,1-.015,1.346,2.066,2.066,0,0,1-2.055,1.575c-1.177.009-2.355,0-3.465,0-.27.958-.454,1.9-.8,2.785a8.89,8.89,0,0,1-4.592,4.863.583.583,0,0,0-.4.619c.014,2.783.008,5.565.008,8.347v.482h4.272L49.087,44.666l-6.98-10.475h3.434c.011-.185.026-.312.026-.439,0-2.812,0-5.623.007-8.435a.526.526,0,0,0-.346-.561,9.13,9.13,0,0,1-5.305-7.575.575.575,0,0,0-.335-.48,14.992,14.992,0,0,1-1.464-1.081c-.178-.146-.293-.215-.523-.1a1.587,1.587,0,0,1-.672.148c-2.256.01-4.513.006-6.769,0-.056,0-.113-.012-.206-.022V2.844h.453c2.111,0,4.222.007,6.332,0a1.66,1.66,0,0,1,1.453.62M49.059,24.2A7.832,7.832,0,1,0,41.3,16.175,7.829,7.829,0,0,0,49.059,24.2m.3-18.321a5.219,5.219,0,0,1,3.235-1.555c.766-.071,1.541-.037,2.311-.069a2.111,2.111,0,0,0,2.03-1.922c.043-.6-.226-.9-.832-.9-3.173,0-6.347-.038-9.519.013a10.842,10.842,0,0,0-7.84,3.487,1.013,1.013,0,0,0-.31.772c.013,2.418.038,4.837-.012,7.254a1.845,1.845,0,0,0,.724,1.691c.255.191.486.416.774.665A9.216,9.216,0,0,1,44.463,8.4,9.121,9.121,0,0,1,52.65,7.8V5.767A4.162,4.162,0,0,0,50.328,6.9l-.97-1.013m1.9,29.715V25.437c-.74.071-1.432.189-2.125.189s-1.408-.12-2.164-.192V35.621H44.77L49.155,42.2,54.1,35.6Zm-19.9-21.392H37V4.292H31.356ZM54.114,8.536c.527.442.958.831,1.419,1.178a1.182,1.182,0,0,0,.646.252c2.749.017,5.5.011,8.246.011.7,0,1.045-.234,1.059-.7s-.357-.738-1.068-.738h-10.3Zm.012-1.44c.134.009.247.024.36.024q4.339,0,8.678,0c.116,0,.269.031.34-.029.2-.168.469-.357.5-.573a.982.982,0,0,0-.3-.691c-.11-.117-.377-.116-.573-.117q-4.3-.01-8.591,0h-.415Zm2.816,4.321c.209.4.408.72.553,1.067a.473.473,0,0,0,.52.334c1.717-.013,3.434-.006,5.151-.007.572,0,.9-.271.886-.724-.012-.434-.329-.686-.881-.687q-2.947,0-5.893,0c-.1,0-.194.01-.336.018m1.414,4.256c1.154,0,2.3.006,3.446,0,.517,0,.817-.275.822-.706.006-.448-.3-.716-.847-.72-1-.007-2.007,0-3.01,0h-.633l.222,1.432" transform="translate(-26.457 0)" fill="#fff"/>
    <path id="Path_443" data-name="Path 443" d="M10.55,170.147h4.282L6.977,180.629,0,170.158H3.456V158.771h1.4v12.781H2.64l4.4,6.614,4.931-6.579H9.188v-12.81H10.55Z" transform="translate(0 -140.235)" fill="#fff"/>
    <path id="Path_444" data-name="Path 444" d="M262.983,178.156l4.93-6.578h-2.8V158.759h1.358v11.35h4.316l-7.874,10.51-6.981-10.476h3.444V158.767h1.406V171.54H258.58l4.4,6.616" transform="translate(-226.057 -140.225)" fill="#fff"/>
    <path id="Path_445" data-name="Path 445" d="M180.025,106.342h-1.372v1.4h-1.461c0-.414.012-.818-.007-1.221-.006-.126-.059-.317-.149-.363a2.339,2.339,0,0,1-1.243-2.624h1.251a3.873,3.873,0,0,0,.5,1.235c.184.205.666.142,1.084.21,0-.308.013-.522,0-.734a.729.729,0,0,0-.751-.743,2.14,2.14,0,0,1-2.1-2.268c0-.652,0-1.3,0-2h1.418v-1.4h1.439c0,.418-.011.822.007,1.224.006.125.058.312.147.358a2.349,2.349,0,0,1,1.24,2.634h-1.241a3.936,3.936,0,0,0-.505-1.239c-.184-.2-.663-.143-1-.2-.232,1.045-.006,1.373.94,1.49a2.072,2.072,0,0,1,1.8,1.816c.072.79.015,1.592.015,2.424" transform="translate(-155.247 -86.412)" fill="#fff"/>
  </g>
</svg>
