<svg id="Group_859" data-name="Group 859" xmlns="http://www.w3.org/2000/svg" xmlns:xlink="http://www.w3.org/1999/xlink" width="73" height="73" viewBox="0 0 73 73">
  <defs>
    <clipPath id="clip-path">
      <rect id="Rectangle_255" data-name="Rectangle 255" width="36.233" height="36.214" fill="#fff"/>
    </clipPath>
  </defs>
  <circle id="Ellipse_37" data-name="Ellipse 37" cx="36.5" cy="36.5" r="36.5" fill="#da6900"/>
  <g id="Group_397" data-name="Group 397" transform="translate(18 18)">
    <g id="Group_396" data-name="Group 396" clip-path="url(#clip-path)">
      <path id="Path_441" data-name="Path 441" d="M4,8.716c-.267-.537-.532-1.069-.8-1.6A3.652,3.652,0,0,1,5.347,1.882a3.714,3.714,0,0,0,.9-.6A6.2,6.2,0,0,1,8.744.129a5.838,5.838,0,0,1,3.57.361c.6.259,1.2.526,1.792.814a4.686,4.686,0,0,1,2.6,5.076c-.01.057-.019.115-.021.128H19.2a11.5,11.5,0,0,1,.017-1.825A3.5,3.5,0,0,1,21.3,2.044a8.971,8.971,0,0,0,1.338-.784,6.05,6.05,0,0,1,3.7-1.253,4.271,4.271,0,0,1,1.471.207,20.1,20.1,0,0,1,3.219,1.43,4.609,4.609,0,0,1,1.8,5.606c-.188.486-.4.962-.625,1.481a1.863,1.863,0,0,1,1.434.823,1.757,1.757,0,0,1,.261,1.187c-.094.865-.749,1.412-1.858,1.541-.092.292-.169.6-.282.888a5.686,5.686,0,0,1-2.281,2.814.457.457,0,0,0-.263.46c.025.412-.127.92.064,1.212s.706.368,1.084.526q1.915.8,3.835,1.6a2.952,2.952,0,0,1,2.035,3.045q0,3.651,0,7.3c0,.648-.176.825-.819.825H31.558v.393q0,2.027,0,4.053c0,.626-.181.813-.795.813H5.46c-.593,0-.78-.19-.78-.79,0-1.472,0-2.943,0-4.469h-.4c-1.181,0-2.361,0-3.542,0-.525,0-.731-.205-.731-.728,0-2.544-.015-5.088.005-7.631a2.811,2.811,0,0,1,1.841-2.728c1.575-.674,3.161-1.321,4.743-1.981.134-.056.268-.115.422-.181,0-.461.008-.922-.007-1.383a.364.364,0,0,0-.143-.257A5.882,5.882,0,0,1,4.213,12.3c-1.275-.221-1.866-.763-1.9-1.737C2.278,9.624,2.851,8.993,4,8.716M35.064,29.772c0-2.341,0-4.641,0-6.94a1.813,1.813,0,0,0-1.306-1.962L28.61,18.722c-.495-.206-.559-.3-.56-.852,0-.609.02-1.218-.007-1.825a.907.907,0,0,1,.5-.879,7.415,7.415,0,0,0,1.365-1.132,4.094,4.094,0,0,0,1-2.23c.086-.58.249-.713.845-.715.134,0,.269.007.4,0a.58.58,0,0,0,0-1.16c-.182-.014-.365,0-.548-.006a.6.6,0,0,1-.639-.639,2.245,2.245,0,0,1,.213-1.166c.21-.424.392-.863.559-1.306A3.515,3.515,0,0,0,30.039,2.4c-.639-.324-1.3-.612-1.959-.887A4.515,4.515,0,0,0,25.829,1.2,4.934,4.934,0,0,0,23.27,2.257a5.33,5.33,0,0,1-1.459.869,2.29,2.29,0,0,0-1.485,1.885,2.453,2.453,0,0,0,.451,1.869,2.388,2.388,0,0,0,.829.531c.234.128.488.217.727.338a4.74,4.74,0,0,1,2.214,6.181c-.175.4-.346.809-.534,1.249.225,0,.382,0,.54,0a1.752,1.752,0,0,1,.012,3.5c-.241.006-.481,0-.716,0A5.957,5.957,0,0,1,21.2,22.477a.369.369,0,0,0-.156.25c-.016.448-.007.9-.007,1.345.119.036.211.067.3.093,2.692.751,5.387,1.49,8.074,2.257a2.816,2.816,0,0,1,2.11,2.445,5.829,5.829,0,0,1,.007.9ZM12.187,15.157c-.31-.624-.612-1.2-.889-1.8a3.593,3.593,0,0,1,1.78-4.849,7.3,7.3,0,0,0,1.459-.872c.166-.123.352-.22.511-.35a.921.921,0,0,0,.273-.321A3.524,3.524,0,0,0,13.671,2.4c-.639-.323-1.3-.614-1.959-.887a4.654,4.654,0,0,0-2.792-.226A6.14,6.14,0,0,0,6.435,2.611a2.1,2.1,0,0,1-.621.365,2.477,2.477,0,0,0-1.559,3.63c.289.589.628,1.158.863,1.768a2.686,2.686,0,0,1,.112,1.1.509.509,0,0,1-.546.443c-.206.01-.415-.007-.62.009a.579.579,0,0,0-.011,1.156c.169.017.341.005.511.007.48,0,.671.15.742.619a4.62,4.62,0,0,0,2.481,3.53.7.7,0,0,1,.4.678c-.007.645,0,1.29,0,1.935,0,.574-.067.672-.607.9Q5,19.819,2.429,20.889a1.79,1.79,0,0,0-1.255,1.887q0,3.3,0,6.609v.384H4.679c0-.148,0-.278,0-.409a2.938,2.938,0,0,1,2.256-2.984q2.7-.751,5.41-1.495c.947-.262,1.892-.53,2.852-.8,0-.409-.013-.8,0-1.186a.493.493,0,0,0-.263-.5,5.717,5.717,0,0,1-2.46-3.368c-.031-.113-.07-.224-.1-.326-1.724-.126-2.427-.637-2.437-1.754-.01-1.093.708-1.679,2.248-1.793M9.369,35.028V30.39H10.53v4.627h15.2V30.4H26.9v4.628h3.461a.75.75,0,0,0,.024-.123c0-1.911.01-3.822,0-5.733a1.71,1.71,0,0,0-1.321-1.641c-2.715-.76-5.432-1.51-8.146-2.273a.441.441,0,0,0-.5.143c-.559.577-1.132,1.14-1.7,1.707-.473.472-.708.47-1.19-.011-.56-.559-1.126-1.112-1.674-1.683a.47.47,0,0,0-.536-.151c-2.667.75-5.337,1.488-8.005,2.232A1.766,1.766,0,0,0,5.848,29.4q0,2.629,0,5.259v.371ZM22.01,13.752a5.986,5.986,0,0,1-7.756.019,4.065,4.065,0,0,0-.817,2.811,8.975,8.975,0,0,1,.009,1.021,4.694,4.694,0,0,0,4.207,4.566A4.592,4.592,0,0,0,22.609,18.7a20.413,20.413,0,0,0,.177-3.339.389.389,0,0,0-.059-.169c-.232-.468-.466-.934-.717-1.438m-4.95-2.936a2.7,2.7,0,0,0-4.011-.937c-1.15.974-1.258,2.4-.16,3.931.2-.392.379-.771.574-1.144a.6.6,0,0,1,.989-.236c.346.248.674.521,1.028.757a4.618,4.618,0,0,0,3.97.626,7.274,7.274,0,0,0,2.309-1.362.605.605,0,0,1,1.033.248c.176.342.346.687.53,1.054a3.547,3.547,0,0,0-1.416-4.9c-.559-.292-1.143-.538-1.718-.8a4.842,4.842,0,0,0-2.811-.394,3.4,3.4,0,0,0-1.636.663A3.948,3.948,0,0,1,17.978,10.2l-.918.612M19.871,23.09a6.032,6.032,0,0,1-3.506.008c0,.336-.008.615,0,.894a.622.622,0,0,0,.087.37c.534.563,1.086,1.108,1.663,1.69.577-.582,1.126-1.131,1.667-1.687a.365.365,0,0,0,.081-.227c.009-.327,0-.655,0-1.047M12.254,17.5V16.376c-.783-.084-1.136.088-1.144.547s.32.624,1.144.579m11.737-1.124V17.5c.818.042,1.147-.132,1.136-.584s-.371-.632-1.136-.542" transform="translate(0 0)" fill="#fff"/>
    </g>
  </g>
</svg>
