<svg id="Group_858" data-name="Group 858" xmlns="http://www.w3.org/2000/svg" xmlns:xlink="http://www.w3.org/1999/xlink" width="73" height="73" viewBox="0 0 73 73">
  <defs>
    <clipPath id="clip-path">
      <rect id="Rectangle_254" data-name="Rectangle 254" width="48.303" height="25.659" fill="#fff"/>
    </clipPath>
  </defs>
  <circle id="Ellipse_36" data-name="Ellipse 36" cx="36.5" cy="36.5" r="36.5" fill="#ec1094"/>
  <g id="Group_395" data-name="Group 395" transform="translate(12 24)">
    <g id="Group_395-2" data-name="Group 395" clip-path="url(#clip-path)">
      <path id="Path_432" data-name="Path 432" d="M0,13.3a1.125,1.125,0,0,1,1.094-.479c.548.032,1.1.007,1.695.007.028-.276.041-.537.083-.794a.749.749,0,1,1,1.491.13c0,.2,0,.4,0,.664H11.7c.126,0,.252-.006.377,0a.752.752,0,0,1,.744.758.741.741,0,0,1-.759.742c-.644.018-1.289.006-1.933.006H4.2l-.358,4.5c.187.01.324.025.461.025,2.405,0,4.811-.005,7.216.009a.689.689,0,0,0,.644-.342,4.488,4.488,0,0,1,7.384.01.608.608,0,0,0,.552.333c3.537-.013,7.074-.009,10.612-.01.078,0,.155-.011.29-.021l1.385-17.3H5.224c-.106,1.314-.211,2.61-.317,3.907-.059.72-.113,1.441-.181,2.161a.767.767,0,0,1-.794.759.778.778,0,0,1-.7-.9q.263-3.361.546-6.719a.751.751,0,0,1,.8-.75c.11-.006.22,0,.33,0h27.92c.964,0,1.185.262,1.106,1.226-.283,3.446-.554,6.892-.831,10.338q-.323,4.018-.652,8.035a.757.757,0,0,1-.828.774c-.455.011-.91,0-1.437,0,0,.671,0,1.324,0,1.977,0,.8-.235,1.042-1.034,1.042-2.169,0-4.339-.01-6.508.008a.976.976,0,0,1-1.036-.7c-.267-.687-.562-1.364-.862-2.038a.685.685,0,0,0-.352-.3,4.8,4.8,0,0,1-1.394,4,4.4,4.4,0,0,1-3.286,1.288,4.708,4.708,0,0,1-4.462-5.3,1.313,1.313,0,0,0-.23.31c-.24.681-.474,1.364-.69,2.052A.867.867,0,0,1,9.4,23.4c-1.053-.014-2.107,0-3.16-.005-.7,0-.95-.265-.953-.98a13.369,13.369,0,0,0-.113-2.064,1.486,1.486,0,0,0-.243.306c-.194.446-.379.9-.547,1.353a.872.872,0,0,1-.929.635c-.786-.016-1.573-.026-2.358,0A1.15,1.15,0,0,1,0,22.17V17.831a1.112,1.112,0,0,1,1.09-.479c.447.032.9.007,1.352.007.081-1.033.156-2,.236-3.019-.562,0-1.077-.025-1.588.007A1.125,1.125,0,0,1,0,13.868Zm18.865,7.846a3.017,3.017,0,1,0-3.046,3,3.024,3.024,0,0,0,3.046-3m9.794-.745H22.289c.16.384.325.721.439,1.074a.533.533,0,0,0,.613.418c1.4-.021,2.791-.009,4.186-.009h1.131ZM6.8,21.886c.694,0,1.348.007,2-.008a.353.353,0,0,0,.263-.18c.16-.419.291-.849.447-1.32H6.8Zm-5.253-3v2.247h.886c.729,0,.729,0,.89-.605-.338-.189-.758-.29-.925-.553a2.769,2.769,0,0,1-.157-1.09Z" transform="translate(0 0)" fill="#fff"/>
      <path id="Path_433" data-name="Path 433" d="M278.624,47.89c0,1.241,0,2.482,0,3.723a2.27,2.27,0,0,1-2.394,2.4q-1.367.007-2.734,0c-.623,0-.885-.264-.91-.881a6.036,6.036,0,0,0-6.149-5.909c-.66,0-1.32,0-1.979,0s-.963-.3-.915-.959c.16-2.177.333-4.353.5-6.529.077-.986.157-1.972.234-2.959.048-.624.3-.869.926-.87,1.681,0,3.362-.018,5.043.005a8.615,8.615,0,0,1,8.371,8.356c.021,1.209,0,2.419,0,3.629ZM265.745,37.32l-.645,8.409a8.386,8.386,0,0,1,5.936,1.465,7.627,7.627,0,0,1,3.036,5.306c.716,0,1.4,0,2.091,0s.949-.264.95-.934c0-2.4.02-4.807-.005-7.21a6.883,6.883,0,0,0-5.531-6.726,48.393,48.393,0,0,0-5.832-.311" transform="translate(-230.324 -31.368)" fill="#fff"/>
      <path id="Path_434" data-name="Path 434" d="M257.508,136.307a4.526,4.526,0,1,1,4.542,4.511,4.54,4.54,0,0,1-4.542-4.511m7.544-.009a3.017,3.017,0,1,0-3.036,3.011,3.024,3.024,0,0,0,3.036-3.011" transform="translate(-225.055 -115.159)" fill="#fff"/>
      <path id="Path_435" data-name="Path 435" d="M12.907,71.769c1.87,0,3.741,0,5.611,0,.592,0,.935.348.871.855a.747.747,0,0,1-.84.651c-1.163.007-2.326,0-3.489,0-2.578,0-5.155.007-7.733-.011a1.118,1.118,0,0,1-.757-.258.839.839,0,0,1-.132-.754.981.981,0,0,1,.673-.463,14.915,14.915,0,0,1,1.742-.023h4.055" transform="translate(-5.59 -62.712)" fill="#fff"/>
      <path id="Path_436" data-name="Path 436" d="M48.36,43.43H43.078a2.418,2.418,0,0,1-.424-.011.75.75,0,0,1-.015-1.487,1.409,1.409,0,0,1,.282-.011H53.958c.52.017.849.3.853.747a.764.764,0,0,1-.838.761c-.283.008-.566,0-.849,0H48.36" transform="translate(-36.703 -36.637)" fill="#fff"/>
      <path id="Path_437" data-name="Path 437" d="M116.42,71.854c.236,0,.472-.014.706,0a.747.747,0,0,1,.737.762.735.735,0,0,1-.716.732,14.057,14.057,0,0,1-1.46,0,.72.72,0,0,1-.684-.757.735.735,0,0,1,.71-.735c.234-.018.471,0,.706,0" transform="translate(-100.51 -62.794)" fill="#fff"/>
      <path id="Path_438" data-name="Path 438" d="M112.326,152a2.262,2.262,0,1,1-2.231-2.27,2.273,2.273,0,0,1,2.231,2.27m-2.247-.759a.751.751,0,1,0,.735.767.759.759,0,0,0-.735-.767" transform="translate(-94.215 -130.858)" fill="#fff"/>
      <path id="Path_439" data-name="Path 439" d="M286.407,60.724c-1.319,0-2.639,0-3.958,0-.713,0-1.016-.35-.917-1.035q.358-2.469.718-4.938c.089-.609.323-.835.934-.812a21.472,21.472,0,0,1,3.558.209,5.925,5.925,0,0,1,4.569,5.549c.023.755-.238,1.027-.994,1.029q-1.955,0-3.911,0m3.3-1.527a4.293,4.293,0,0,0-3.158-3.546,20.688,20.688,0,0,0-2.864-.289l-.546,3.836Z" transform="translate(-246.036 -47.139)" fill="#fff"/>
      <path id="Path_440" data-name="Path 440" d="M277.722,154.254A2.263,2.263,0,1,1,280,152.027a2.273,2.273,0,0,1-2.275,2.227m.025-1.512a.751.751,0,1,0-.764-.738.761.761,0,0,0,.764.738" transform="translate(-240.756 -130.859)" fill="#fff"/>
    </g>
  </g>
</svg>
