<svg id="Group_857" data-name="Group 857" xmlns="http://www.w3.org/2000/svg" xmlns:xlink="http://www.w3.org/1999/xlink" width="73" height="73" viewBox="0 0 73 73">
  <defs>
    <clipPath id="clip-path">
      <rect id="Rectangle_253" data-name="Rectangle 253" width="35.284" height="36.214" fill="#fff"/>
    </clipPath>
  </defs>
  <circle id="Ellipse_35" data-name="Ellipse 35" cx="36.5" cy="36.5" r="36.5" fill="#6b13ff"/>
  <g id="Group_394" data-name="Group 394" transform="translate(21 16)">
    <g id="Group_393" data-name="Group 393" clip-path="url(#clip-path)">
      <path id="Path_423" data-name="Path 423" d="M38.842,0l.727,1.015L37.548,2.578l4.517,6.2L44.134,7.31l.742.933-.951.879c.816,1.124,1.615,2.229,2.418,3.33,2.021,2.771,4.075,5.52,6.043,8.328a4.091,4.091,0,0,1,.664,2.05c.06,1.2-.021,2.358.873,3.375.226.257-.053.958-.1,1.455l-.308.008,5.98,7.449-.986.814-6.117-7.588c-.909.953-1.489.4-1.921-.427a2.426,2.426,0,0,0-1.962-1.134,4.07,4.07,0,0,1-2.66-1.874c-2.662-3.744-5.4-7.437-8.156-11.218l-1.11.625-.722-.956,2.048-1.553-4.525-6.2L31.307,7.062l-.778-1L38.842,0m13.5,26.774a14.21,14.21,0,0,1-.483-2.9,4.613,4.613,0,0,0-1.064-3.184c-2.445-3.26-4.82-6.573-7.224-9.863-.234-.32-.487-.626-.763-.978l-4.116,3.023c2.861,3.922,5.63,7.748,8.448,11.537a3.171,3.171,0,0,0,1.436,1.012c1.149.4,2.427.517,3.014,1.9l.751-.552M34.409,4.824l4.558,6.243,2.051-1.542-4.525-6.2-2.084,1.5" transform="translate(-24.211 0.001)" fill="#fff"/>
      <path id="Path_424" data-name="Path 424" d="M.04,89.043c0-1.647.095-3.3-.027-4.938A3.617,3.617,0,0,1,1.877,80.6c1.065-.713,1.063-.89.064-1.592A2.63,2.63,0,0,1,1.4,76.334c.244-.806.851-.971,1.606-.965q3.447.027,6.9,0c.739-.006,1.385.1,1.648.907a2.58,2.58,0,0,1-.648,2.8c-.793.493-.824.883-.025,1.37a3.989,3.989,0,0,1,2.1,3.907c-.124,3.426-.058,6.86-.022,10.29.01.956-.279,1.353-1.294,1.339-3.464-.046-6.93-.041-10.394,0C.311,95.994,0,95.624.026,94.7c.046-1.885.014-3.773.014-5.66m11.483,5.634a4.271,4.271,0,0,0,.089-.544c0-3.569.041-7.138-.034-10.705a2.328,2.328,0,0,0-.89-1.484c-.89-.714-2.081-1.15-1.6-2.642H3.883c.377,1.32-.451,1.845-1.337,2.46a2.623,2.623,0,0,0-1.161,1.654c-.106,3.531-.064,7.067-.03,10.6,0,.222.345.631.534.633,3.185.04,6.371.028,9.633.028M2.694,77.852h7.571V76.7H2.694Z" transform="translate(0 -59.772)" fill="#fff"/>
      <path id="Path_425" data-name="Path 425" d="M96.383,67l.774,1.009-1.02.751-.751-1,1-.763" transform="translate(-75.646 -53.138)" fill="#fff"/>
      <path id="Path_426" data-name="Path 426" d="M102.6,77.81l1.045-.766.721,1-.959.759-.807-1" transform="translate(-81.37 -61.1)" fill="#fff"/>
      <path id="Path_427" data-name="Path 427" d="M111.053,87.091l.755,1.007-1,.754-.764-1,1.009-.765" transform="translate(-87.271 -69.068)" fill="#fff"/>
      <path id="Path_428" data-name="Path 428" d="M88.874,58.7l-.7-.99.972-.759.771,1.028-1.043.721" transform="translate(-69.927 -45.167)" fill="#fff"/>
      <path id="Path_429" data-name="Path 429" d="M118.379,97.158l.768.985-1,.775-.762-1,.991-.765" transform="translate(-93.095 -77.051)" fill="#fff"/>
      <rect id="Rectangle_252" data-name="Rectangle 252" width="6.31" height="1.164" transform="translate(3.325 28.525)" fill="#fff"/>
      <path id="Path_430" data-name="Path 430" d="M26.078,114.272V115.4l-1.181.13-.131,1.146H23.6l-.15-1.148-1.143-.112v-1.163l1.13-.13.157-1.181h1.142l.181,1.149,1.165.179" transform="translate(-17.687 -89.57)" fill="#fff"/>
      <path id="Path_431" data-name="Path 431" d="M15.849,150.234H22.22c.019.365.037.721.058,1.153H15.91l-.061-1.153" transform="translate(-12.569 -119.143)" fill="#fff"/>
    </g>
  </g>
</svg>
