<svg id="Group_392" data-name="Group 392" xmlns="http://www.w3.org/2000/svg" xmlns:xlink="http://www.w3.org/1999/xlink" width="38.031" height="43.888" viewBox="0 0 38.031 43.888">
  <defs>
    <clipPath id="clip-path">
      <rect id="Rectangle_251" data-name="Rectangle 251" width="38.031" height="43.888" fill="#00c5c5"/>
    </clipPath>
  </defs>
  <g id="Group_391" data-name="Group 391" clip-path="url(#clip-path)">
    <path id="Path_420" data-name="Path 420" d="M27.519,42.126c-.739.128-1.846.324-2.955.511a33.887,33.887,0,0,1-13.022-.344,5.984,5.984,0,0,0-4.759.846A4.285,4.285,0,0,1,1.3,42.6a4.341,4.341,0,0,1-.528-5.57,6.146,6.146,0,0,0,1.051-4.767c-.167-.913-.341-1.825-.479-2.743A46.012,46.012,0,0,1,1,17.32c.229-1.964.547-3.918.851-5.872a5.961,5.961,0,0,0-.981-4.43A4.373,4.373,0,0,1,.746,1.965a4.3,4.3,0,0,1,6.5-.837,5.553,5.553,0,0,0,4.965,1.521,53.628,53.628,0,0,1,12.855-.1c.56.062,1.118.137,1.679.186a4.583,4.583,0,0,0,3.761-1.4A4.341,4.341,0,0,1,36.182.839,4.262,4.262,0,0,1,37.324,6.68a7.02,7.02,0,0,0-1.017,5.69,47.371,47.371,0,0,1,.556,15.546c-.2,1.508-.468,3.007-.712,4.509a5.958,5.958,0,0,0,1,4.47,4.241,4.241,0,0,1,.173,4.9,4.343,4.343,0,0,1-6.037,1.39,6.222,6.222,0,0,0-3.771-1.054m9.18-37.7a3.518,3.518,0,0,0-.9-2.027,2.9,2.9,0,0,0-4.239,0,5.891,5.891,0,0,1-4.8,1.794c-.926-.073-1.848-.185-2.772-.275a51.924,51.924,0,0,0-11.717.2,6.454,6.454,0,0,1-5.85-1.824,2.684,2.684,0,0,0-1.892-.8A2.8,2.8,0,0,0,1.875,2.943a2.776,2.776,0,0,0,.15,3.144,7.44,7.44,0,0,1,1.209,5.95A48.364,48.364,0,0,0,3.19,31.547a7.73,7.73,0,0,1-1.166,6.267,2.86,2.86,0,0,0,.3,3.725,2.88,2.88,0,0,0,3.683.4,7.672,7.672,0,0,1,6.034-1.03,31.954,31.954,0,0,0,12.073.347c1.05-.175,2.091-.427,3.148-.54a7.257,7.257,0,0,1,4.776,1.2,2.913,2.913,0,0,0,4.492-1.8,2.983,2.983,0,0,0-.538-2.421,7.225,7.225,0,0,1-1.214-5.515c.253-1.5.514-3,.715-4.508a45.218,45.218,0,0,0-.553-15,8.216,8.216,0,0,1,1.2-6.744A6.219,6.219,0,0,0,36.7,4.422" transform="translate(0 0)" fill="#00c5c5"/>
    <path id="Path_421" data-name="Path 421" d="M116.712,134.131a18.281,18.281,0,0,1,.309,1.84,8.326,8.326,0,0,1-.064,1.854,1.188,1.188,0,0,1-.944,1.01,1.208,1.208,0,0,1-1.31-.549,7.363,7.363,0,0,1-.723-1.36c-.207-.5-.336-1.039-.527-1.651-.158.276-.264.5-.405.7a6.411,6.411,0,0,1-.8,1.043,1,1,0,0,1-1.708-.448,7.913,7.913,0,0,1-.219-1.573,12.913,12.913,0,0,0-.221-1.834c-.215.4-.412.809-.651,1.193a4.382,4.382,0,0,1-.641.826,1.179,1.179,0,0,1-2.125-.565,11.556,11.556,0,0,1-.075-2.305,3.157,3.157,0,0,0-.016-.792c-.219.207-.442.41-.657.621a17.7,17.7,0,0,1-1.437,1.394,2.534,2.534,0,0,1-1.159.467,1.082,1.082,0,0,1-1.243-1.047,3.171,3.171,0,0,1,.141-1.255,25.9,25.9,0,0,1,5.469-9.19,30.2,30.2,0,0,1,2.306-1.959,4.164,4.164,0,0,1-1.526-2.263,4.781,4.781,0,0,1-.084-1.834,1.494,1.494,0,0,1,1.919-1.215,10.643,10.643,0,0,1,2.124.9c.651.347,1.247.8,1.914,1.235-.011-.252-.028-.444-.027-.636a1.177,1.177,0,0,1,1.522-1.214A3.149,3.149,0,0,1,118,118.216a12.275,12.275,0,0,0,1.466,4.62,1.623,1.623,0,0,0,.538.534c1.29.807,2.59,1.6,3.892,2.386.343.208.649.434.571.89s-.441.578-.828.667q-2.4.553-4.8,1.114c-.131.03-.259.073-.42.118a3.479,3.479,0,0,0,1.086,2.4,4.272,4.272,0,0,1,.827.9,2.042,2.042,0,0,1-.528,2.732,2,2,0,0,1-2.761-.226c-.083-.086-.15-.187-.224-.282Zm-4.849,1.035c.256-.537.455-1.015.7-1.464a.953.953,0,0,1,1.729-.093,3.221,3.221,0,0,1,.391.769c.208.587.38,1.187.573,1.78.081.25.179.5.269.743l.129-.029c-.034-.305-.044-.615-.1-.915a18.81,18.81,0,0,1-.378-5.222,4.982,4.982,0,0,1,.46-1.7c.792-1.677,1.639-3.328,2.487-4.978a.556.556,0,0,0-.069-.689,5.165,5.165,0,0,0-5.489-2.026,7.518,7.518,0,0,0-4.236,2.689,26.866,26.866,0,0,0-4.648,8.067,1.013,1.013,0,0,0-.031.249l.092.065c.329-.348.642-.714.991-1.041a7.764,7.764,0,0,1,1.382-1.169,1.3,1.3,0,0,1,2,1.024,7.792,7.792,0,0,1-.043,1.4c-.017.378-.037.756-.055,1.134a1.141,1.141,0,0,0,.388-.455c.157-.312.29-.636.452-.946a5.786,5.786,0,0,1,.611-1.059.959.959,0,0,1,1.6.079,3.423,3.423,0,0,1,.511,1.25c.144.8.188,1.619.284,2.529m4.029-17.952c0,.121,0,.182,0,.242.041.574.069,1.154-.512,1.5s-1.083.062-1.587-.2c-.067-.036-.134-.072-.2-.114-.676-.44-1.338-.9-2.032-1.313a11.709,11.709,0,0,0-1.4-.652c-.234-.1-.371.011-.407.268-.186,1.334,1.267,3.191,2.8,2.876a5.625,5.625,0,0,1,1.814-.08c.844.108,1.671.355,2.482.537-.193-1.914-.38-2.543-.964-3.064m2.343,9.864,3.613-.845-2.462-1.516-1.151,2.361m-1.053,2.838-.09.021c.028.34.039.683.088,1.021a4.534,4.534,0,0,0,.831,2.283c.284.354.625.414.908.19a.646.646,0,0,0,.035-1,2.473,2.473,0,0,0-.331-.312,4.266,4.266,0,0,1-1.275-1.8c-.052-.134-.11-.265-.165-.4" transform="translate(-92.756 -104.651)" fill="#00c5c5"/>
    <path id="Path_422" data-name="Path 422" d="M225.6,208.9a.728.728,0,1,1-.733-.723.738.738,0,0,1,.733.723" transform="translate(-203.662 -189.15)" fill="#00c5c5"/>
  </g>
</svg>
