<svg id="Group_397" data-name="Group 397" xmlns="http://www.w3.org/2000/svg" xmlns:xlink="http://www.w3.org/1999/xlink" width="38.963" height="38.944" viewBox="0 0 38.963 38.944">
  <defs>
    <clipPath id="clip-path">
      <rect id="Rectangle_255" data-name="Rectangle 255" width="38.963" height="38.944" fill="#da6900"/>
    </clipPath>
  </defs>
  <g id="Group_396" data-name="Group 396" clip-path="url(#clip-path)">
    <path id="Path_441" data-name="Path 441" d="M4.3,9.373C4.016,8.8,3.73,8.224,3.447,7.651a3.927,3.927,0,0,1,2.3-5.627,3.994,3.994,0,0,0,.973-.642A6.662,6.662,0,0,1,9.4.139a6.278,6.278,0,0,1,3.84.388c.648.279,1.293.565,1.927.876a5.039,5.039,0,0,1,2.795,5.459c-.01.062-.02.124-.023.137h2.705a12.365,12.365,0,0,1,.018-1.963A3.763,3.763,0,0,1,22.9,2.2a9.647,9.647,0,0,0,1.439-.844A6.506,6.506,0,0,1,28.319.008,4.593,4.593,0,0,1,29.9.23a21.618,21.618,0,0,1,3.462,1.538A4.956,4.956,0,0,1,35.3,7.8c-.2.523-.435,1.034-.672,1.593a2,2,0,0,1,1.542.885,1.89,1.89,0,0,1,.28,1.276c-.1.93-.8,1.519-2,1.657-.1.314-.182.642-.3.955A6.115,6.115,0,0,1,31.7,17.189a.491.491,0,0,0-.283.494c.027.443-.136.989.069,1.3s.759.4,1.165.566q2.06.865,4.124,1.72a3.175,3.175,0,0,1,2.188,3.274q0,3.926,0,7.853c0,.7-.189.887-.88.887H33.936v.423q0,2.179,0,4.358c0,.674-.2.874-.855.874H5.871c-.638,0-.839-.2-.839-.849,0-1.583,0-3.165,0-4.806H4.6c-1.27,0-2.539,0-3.809,0-.565,0-.786-.221-.786-.783C0,29.769-.01,27.034.011,24.3a3.022,3.022,0,0,1,1.979-2.934c1.694-.725,3.4-1.421,5.1-2.13.145-.06.288-.124.454-.2,0-.5.008-.992-.007-1.487a.392.392,0,0,0-.154-.276A6.326,6.326,0,0,1,4.53,13.224c-1.371-.237-2.006-.821-2.044-1.868C2.45,10.349,3.066,9.67,4.3,9.373m33.4,22.642c0-2.517,0-4.99,0-7.463a1.949,1.949,0,0,0-1.4-2.109l-5.535-2.309c-.532-.222-.6-.327-.6-.916,0-.654.022-1.31-.008-1.963a.975.975,0,0,1,.54-.945,7.974,7.974,0,0,0,1.468-1.218,4.4,4.4,0,0,0,1.077-2.4c.093-.624.268-.767.909-.769.144,0,.289.008.432,0a.624.624,0,0,0,0-1.247c-.2-.015-.393,0-.589-.007a.643.643,0,0,1-.688-.687,2.414,2.414,0,0,1,.229-1.253c.226-.456.422-.928.6-1.4A3.78,3.78,0,0,0,32.3,2.582c-.687-.348-1.395-.658-2.106-.954a4.855,4.855,0,0,0-2.421-.34,5.306,5.306,0,0,0-2.752,1.139,5.732,5.732,0,0,1-1.569.935,2.462,2.462,0,0,0-1.6,2.028,2.637,2.637,0,0,0,.485,2.01,2.568,2.568,0,0,0,.892.572c.251.138.525.234.782.363A5.1,5.1,0,0,1,26.4,14.98c-.189.434-.372.87-.574,1.343.242,0,.411,0,.581,0a1.884,1.884,0,0,1,.013,3.767c-.259.007-.518,0-.77,0A6.406,6.406,0,0,1,22.8,24.171a.4.4,0,0,0-.168.269c-.017.481-.008.964-.008,1.446.128.039.227.072.328.1,2.895.807,5.793,1.6,8.683,2.427a3.029,3.029,0,0,1,2.269,2.63,6.268,6.268,0,0,1,.007.973ZM13.105,16.3c-.333-.671-.658-1.295-.956-1.932a3.864,3.864,0,0,1,1.914-5.214,7.846,7.846,0,0,0,1.569-.938c.179-.132.378-.237.55-.376a.99.99,0,0,0,.293-.345A3.79,3.79,0,0,0,14.7,2.578c-.687-.347-1.394-.66-2.106-.954a5,5,0,0,0-3-.243A6.6,6.6,0,0,0,6.921,2.808a2.259,2.259,0,0,1-.668.393A2.663,2.663,0,0,0,4.576,7.1c.311.633.675,1.246.928,1.9a2.889,2.889,0,0,1,.121,1.182.548.548,0,0,1-.587.477c-.222.011-.446-.008-.667.01a.623.623,0,0,0-.012,1.243c.182.018.366.005.549.007.516.005.721.161.8.666a4.968,4.968,0,0,0,2.668,3.8.752.752,0,0,1,.43.729c-.007.694,0,1.387,0,2.081,0,.617-.072.723-.653.965q-2.768,1.151-5.537,2.3a1.924,1.924,0,0,0-1.35,2.029q0,3.554,0,7.107v.413h3.77c0-.159,0-.3,0-.44a3.16,3.16,0,0,1,2.426-3.209q2.908-.807,5.818-1.608c1.018-.282,2.034-.57,3.067-.86,0-.439-.014-.858.005-1.275a.53.53,0,0,0-.283-.535,6.148,6.148,0,0,1-2.645-3.622c-.034-.121-.076-.24-.111-.35-1.854-.136-2.61-.685-2.621-1.886-.01-1.175.761-1.805,2.417-1.929m-3.03,21.369V32.681h1.249v4.975H27.667V32.687H28.93v4.977h3.721a.806.806,0,0,0,.026-.133c0-2.055.011-4.11,0-6.165A1.839,1.839,0,0,0,31.252,29.6c-2.919-.817-5.842-1.623-8.76-2.444a.474.474,0,0,0-.542.154c-.6.621-1.218,1.226-1.829,1.836-.509.507-.761.5-1.279-.012-.6-.6-1.211-1.2-1.8-1.809a.505.505,0,0,0-.577-.162c-2.868.806-5.739,1.6-8.609,2.4a1.9,1.9,0,0,0-1.566,2.05q0,2.827,0,5.655v.4Zm13.594-22.88a6.437,6.437,0,0,1-8.341.021,4.371,4.371,0,0,0-.878,3.023,9.651,9.651,0,0,1,.009,1.1,5.048,5.048,0,0,0,4.524,4.91,4.938,4.938,0,0,0,5.33-3.733,21.951,21.951,0,0,0,.191-3.59.418.418,0,0,0-.063-.182c-.249-.5-.5-1-.771-1.547m-5.323-3.157a2.9,2.9,0,0,0-4.313-1.008c-1.236,1.047-1.353,2.584-.172,4.227.21-.421.407-.829.617-1.23a.64.64,0,0,1,1.063-.254c.372.267.725.561,1.106.814a4.966,4.966,0,0,0,4.27.673A7.822,7.822,0,0,0,23.4,13.389a.651.651,0,0,1,1.111.267c.189.368.372.739.57,1.134a3.814,3.814,0,0,0-1.522-5.271c-.6-.314-1.229-.578-1.848-.859a5.206,5.206,0,0,0-3.023-.424,3.66,3.66,0,0,0-1.759.713,4.246,4.246,0,0,1,2.406,2.025l-.987.658m3.023,13.2a6.486,6.486,0,0,1-3.77.009c0,.362-.009.662,0,.961a.668.668,0,0,0,.093.4c.574.6,1.168,1.191,1.789,1.817.621-.626,1.211-1.216,1.792-1.814a.392.392,0,0,0,.088-.245c.009-.352,0-.7,0-1.126m-8.192-6.01V17.61c-.842-.091-1.222.095-1.23.588s.344.671,1.23.623M25.8,17.611v1.21c.879.045,1.233-.142,1.222-.628s-.4-.68-1.222-.583" transform="translate(0 0)" fill="#da6900"/>
  </g>
</svg>
