<svg id="Group_395" data-name="Group 395" xmlns="http://www.w3.org/2000/svg" xmlns:xlink="http://www.w3.org/1999/xlink" width="51.944" height="27.593" viewBox="0 0 51.944 27.593">
  <defs>
    <clipPath id="clip-path">
      <rect id="Rectangle_254" data-name="Rectangle 254" width="51.944" height="27.593" fill="#eb008d"/>
    </clipPath>
  </defs>
  <g id="Group_395-2" data-name="Group 395" clip-path="url(#clip-path)">
    <path id="Path_432" data-name="Path 432" d="M0,14.305a1.21,1.21,0,0,1,1.176-.515c.589.034,1.181.008,1.822.008.03-.3.044-.578.089-.854a.805.805,0,1,1,1.6.139c0,.217,0,.434,0,.714h7.9c.135,0,.271-.007.405,0a.809.809,0,0,1,.8.815.8.8,0,0,1-.816.8c-.693.02-1.386.007-2.079.007H4.515L4.13,20.262c.2.011.348.027.5.027,2.587,0,5.173-.006,7.76.009a.741.741,0,0,0,.693-.368,4.826,4.826,0,0,1,7.941.01.653.653,0,0,0,.594.359c3.8-.014,7.608-.009,11.411-.01.084,0,.167-.012.312-.023L34.826,1.658H5.618c-.115,1.413-.227,2.807-.341,4.2-.063.775-.121,1.55-.195,2.324A.825.825,0,0,1,4.228,9a.837.837,0,0,1-.756-.963q.283-3.614.587-7.226A.808.808,0,0,1,4.922,0c.118-.006.237,0,.355,0H35.3c1.036,0,1.274.282,1.189,1.319-.3,3.705-.6,7.412-.894,11.117q-.347,4.32-.7,8.641a.814.814,0,0,1-.89.833c-.489.012-.978,0-1.545,0,0,.722,0,1.424,0,2.126,0,.866-.253,1.12-1.112,1.121-2.333,0-4.666-.011-7,.009a1.049,1.049,0,0,1-1.114-.751c-.287-.739-.6-1.467-.927-2.191a.736.736,0,0,0-.379-.319,5.161,5.161,0,0,1-1.5,4.3A4.734,4.734,0,0,1,16.9,27.59a5.063,5.063,0,0,1-4.8-5.7,1.412,1.412,0,0,0-.247.333c-.258.732-.51,1.467-.743,2.207a.933.933,0,0,1-1.007.735c-1.133-.015-2.265,0-3.4-.006-.75,0-1.022-.285-1.025-1.053a14.376,14.376,0,0,0-.121-2.22,1.6,1.6,0,0,0-.262.329c-.208.48-.407.964-.588,1.455a.938.938,0,0,1-1,.683c-.845-.017-1.691-.028-2.535,0A1.236,1.236,0,0,1,0,23.841V19.174a1.2,1.2,0,0,1,1.172-.515c.48.034.965.007,1.454.007.087-1.11.168-2.148.254-3.246-.6,0-1.158-.027-1.707.008A1.21,1.21,0,0,1,0,14.914Zm20.287,8.438a3.245,3.245,0,1,0-3.276,3.227,3.252,3.252,0,0,0,3.276-3.227m10.532-.8H23.969c.172.413.349.775.472,1.155a.573.573,0,0,0,.659.449c1.5-.023,3-.009,4.5-.009h1.216ZM7.313,23.536c.747,0,1.449.008,2.152-.009a.379.379,0,0,0,.282-.194c.172-.451.313-.913.48-1.419H7.313ZM1.665,20.308v2.417h.953c.784,0,.784,0,.958-.651-.363-.2-.815-.312-.995-.594a2.977,2.977,0,0,1-.169-1.172Z" transform="translate(0 0)" fill="#eb008d"/>
    <path id="Path_433" data-name="Path 433" d="M279.761,48.794c0,1.335,0,2.669,0,4a2.441,2.441,0,0,1-2.574,2.577q-1.47.007-2.94,0c-.67,0-.952-.284-.979-.948a6.491,6.491,0,0,0-6.613-6.354c-.709,0-1.419,0-2.129,0s-1.035-.327-.983-1.031c.172-2.341.358-4.681.54-7.021.083-1.061.169-2.121.251-3.182.052-.672.321-.935,1-.936,1.808,0,3.616-.02,5.423.006a9.264,9.264,0,0,1,9,8.986c.023,1.3,0,2.6,0,3.9ZM265.911,37.427l-.694,9.043a9.018,9.018,0,0,1,6.383,1.576,8.2,8.2,0,0,1,3.265,5.706c.77,0,1.509,0,2.249,0s1.021-.284,1.022-1c0-2.584.021-5.169-.006-7.753a7.4,7.4,0,0,0-5.947-7.232,52.04,52.04,0,0,0-6.272-.334" transform="translate(-227.821 -31.027)" fill="#eb008d"/>
    <path id="Path_434" data-name="Path 434" d="M257.508,136.649a4.868,4.868,0,1,1,4.885,4.851,4.882,4.882,0,0,1-4.885-4.851m8.112-.009a3.245,3.245,0,1,0-3.265,3.238,3.251,3.251,0,0,0,3.265-3.238" transform="translate(-222.609 -113.908)" fill="#eb008d"/>
    <path id="Path_435" data-name="Path 435" d="M13.4,71.771c2.011,0,4.023,0,6.034,0,.636,0,1.005.375.936.919a.8.8,0,0,1-.9.7c-1.251.007-2.5,0-3.752,0-2.772,0-5.544.008-8.316-.012a1.2,1.2,0,0,1-.814-.277.9.9,0,0,1-.142-.811,1.055,1.055,0,0,1,.723-.5,16.038,16.038,0,0,1,1.873-.025H13.4" transform="translate(-5.529 -62.031)" fill="#eb008d"/>
    <path id="Path_436" data-name="Path 436" d="M48.84,43.544H43.16a2.6,2.6,0,0,1-.455-.012.806.806,0,0,1-.016-1.6,1.516,1.516,0,0,1,.3-.012H54.86c.559.018.913.327.917.8a.821.821,0,0,1-.9.818c-.3.009-.609,0-.913,0H48.84" transform="translate(-36.304 -36.239)" fill="#eb008d"/>
    <path id="Path_437" data-name="Path 437" d="M116.527,71.854c.253,0,.508-.015.76,0a.8.8,0,0,1,.793.819.79.79,0,0,1-.77.788,15.118,15.118,0,0,1-1.57,0,.775.775,0,0,1-.736-.814.79.79,0,0,1,.764-.79c.252-.02.506,0,.759,0" transform="translate(-99.418 -62.111)" fill="#eb008d"/>
    <path id="Path_438" data-name="Path 438" d="M112.667,152.169a2.433,2.433,0,1,1-2.4-2.441,2.445,2.445,0,0,1,2.4,2.441m-2.416-.816a.808.808,0,1,0,.79.824.816.816,0,0,0-.79-.824" transform="translate(-93.191 -129.436)" fill="#eb008d"/>
    <path id="Path_439" data-name="Path 439" d="M286.776,61.236c-1.419,0-2.838,0-4.256,0-.767,0-1.093-.376-.986-1.113q.385-2.655.772-5.31c.1-.655.348-.9,1-.874a23.09,23.09,0,0,1,3.827.225,6.371,6.371,0,0,1,4.914,5.967c.025.812-.256,1.1-1.069,1.106q-2.1,0-4.206,0m3.546-1.642a4.616,4.616,0,0,0-3.4-3.813,22.247,22.247,0,0,0-3.08-.311l-.588,4.125Z" transform="translate(-243.362 -46.627)" fill="#eb008d"/>
    <path id="Path_440" data-name="Path 440" d="M277.892,154.595a2.433,2.433,0,1,1,2.446-2.395,2.444,2.444,0,0,1-2.446,2.395m.027-1.626a.808.808,0,1,0-.821-.794.818.818,0,0,0,.821.794" transform="translate(-238.139 -129.437)" fill="#eb008d"/>
  </g>
</svg>
