<svg id="Group_394" data-name="Group 394" xmlns="http://www.w3.org/2000/svg" xmlns:xlink="http://www.w3.org/1999/xlink" width="37.944" height="38.944" viewBox="0 0 37.944 38.944">
  <defs>
    <clipPath id="clip-path">
      <rect id="Rectangle_253" data-name="Rectangle 253" width="37.944" height="38.944" fill="#6b13ff"/>
    </clipPath>
  </defs>
  <g id="Group_393" data-name="Group 393" clip-path="url(#clip-path)">
    <path id="Path_423" data-name="Path 423" d="M39.469,0l.782,1.092L38.077,2.772l4.858,6.663,2.224-1.574.8,1-1.022.945c.877,1.209,1.736,2.4,2.6,3.581,2.174,2.98,4.382,5.936,6.5,8.956a4.4,4.4,0,0,1,.714,2.2c.065,1.292-.023,2.536.939,3.63.243.276-.057,1.03-.107,1.564l-.332.008,6.43,8.01-1.06.875L54.04,30.479c-.977,1.025-1.6.434-2.066-.459a2.609,2.609,0,0,0-2.11-1.219A4.377,4.377,0,0,1,47,26.786c-2.863-4.027-5.8-8-8.771-12.063l-1.194.672-.776-1.028,2.2-1.67L33.6,6.028,31.366,7.594l-.837-1.074L39.469,0M53.982,28.791a15.281,15.281,0,0,1-.519-3.113,4.96,4.96,0,0,0-1.144-3.424c-2.629-3.506-5.183-7.068-7.768-10.607-.251-.344-.524-.673-.821-1.052L39.3,13.846c3.077,4.217,6.054,8.332,9.085,12.407a3.41,3.41,0,0,0,1.545,1.088c1.236.432,2.61.556,3.242,2.043l.807-.593M34.7,5.188,39.6,11.9l2.206-1.658L36.943,3.579,34.7,5.188" transform="translate(-23.735 0.001)" fill="#6b13ff"/>
    <path id="Path_424" data-name="Path 424" d="M.043,90.074c0-1.771.1-3.549-.029-5.31a3.889,3.889,0,0,1,2-3.772c1.146-.766,1.143-.957.069-1.712a2.828,2.828,0,0,1-.577-2.872c.262-.866.915-1.044,1.727-1.038q3.707.029,7.415,0c.795-.006,1.489.11,1.772.975a2.775,2.775,0,0,1-.7,3.015c-.853.53-.887.95-.026,1.473a4.29,4.29,0,0,1,2.255,4.2c-.134,3.684-.063,7.377-.023,11.066.011,1.028-.3,1.455-1.392,1.44-3.725-.05-7.452-.044-11.178,0C.334,97.548,0,97.151.028,96.16c.05-2.028.015-4.057.015-6.087m12.348,6.058a4.593,4.593,0,0,0,.1-.585c.005-3.838.044-7.676-.037-11.512a2.5,2.5,0,0,0-.957-1.6c-.957-.767-2.237-1.237-1.717-2.841h-5.6c.405,1.42-.485,1.984-1.437,2.645A2.821,2.821,0,0,0,1.49,84.02c-.114,3.8-.068,7.6-.032,11.4,0,.239.371.678.574.681,3.425.043,6.851.03,10.359.03M2.9,78.039h8.141V76.8H2.9Z" transform="translate(0 -58.596)" fill="#6b13ff"/>
    <path id="Path_425" data-name="Path 425" d="M96.458,67l.833,1.086-1.1.808-.808-1.073L96.458,67" transform="translate(-74.158 -52.093)" fill="#6b13ff"/>
    <path id="Path_426" data-name="Path 426" d="M102.6,77.868l1.124-.824.775,1.08-1.031.817-.867-1.074" transform="translate(-79.77 -59.898)" fill="#6b13ff"/>
    <path id="Path_427" data-name="Path 427" d="M111.129,87.091l.811,1.082-1.074.811-.822-1.071,1.085-.823" transform="translate(-85.554 -67.709)" fill="#6b13ff"/>
    <path id="Path_428" data-name="Path 428" d="M88.927,58.834l-.753-1.064,1.046-.816.829,1.105-1.122.775" transform="translate(-68.551 -44.278)" fill="#6b13ff"/>
    <path id="Path_429" data-name="Path 429" d="M118.454,97.158l.826,1.06-1.072.833-.819-1.071,1.066-.822" transform="translate(-91.264 -75.536)" fill="#6b13ff"/>
    <rect id="Rectangle_252" data-name="Rectangle 252" width="6.785" height="1.251" transform="translate(3.575 30.675)" fill="#6b13ff"/>
    <path id="Path_430" data-name="Path 430" d="M26.362,114.372v1.216l-1.27.14-.141,1.232H23.693l-.162-1.234-1.229-.121v-1.251l1.215-.14.169-1.27h1.228l.194,1.236,1.253.192" transform="translate(-17.34 -87.809)" fill="#6b13ff"/>
    <path id="Path_431" data-name="Path 431" d="M15.849,150.234H22.7c.02.393.039.776.063,1.24H15.914l-.065-1.24" transform="translate(-12.322 -116.8)" fill="#6b13ff"/>
  </g>
</svg>
