<svg id="Group_406" data-name="Group 406" xmlns="http://www.w3.org/2000/svg" xmlns:xlink="http://www.w3.org/1999/xlink" width="16.624" height="14.81" viewBox="0 0 16.624 14.81">
  <defs>
    <clipPath id="clip-path">
      <rect id="Rectangle_192" data-name="Rectangle 192" width="16.624" height="14.81" fill="#707070"/>
    </clipPath>
  </defs>
  <g id="Group_327" data-name="Group 327" clip-path="url(#clip-path)">
    <path id="Path_381" data-name="Path 381" d="M0,3.3a.975.975,0,0,1,.659-.519Q4.345,1.464,8.026.129A2.577,2.577,0,0,1,9.536.1c2.156.492,4.315.972,6.473,1.455a.759.759,0,0,1,.485.265.612.612,0,0,1-.3.963c-.574.206-1.152.4-1.728.6q-3.3,1.137-6.609,2.275A2.043,2.043,0,0,1,6.63,5.7Q3.613,4.9.593,4.1A.782.782,0,0,1,0,3.6Z" transform="translate(0 -0.001)" fill="#707070"/>
    <path id="Path_382" data-name="Path 382" d="M0,104.183a.883.883,0,0,1,.638-.519,6.073,6.073,0,0,0,.639-.231.669.669,0,0,1,.469-.016q2.321.62,4.645,1.231a3,3,0,0,0,1.784-.066q3.373-1.165,6.749-2.317a.572.572,0,0,1,.28-.019c.291.055.58.126.869.192a.645.645,0,0,1,.547.579.63.63,0,0,1-.477.651q-4.161,1.433-8.323,2.866a1.971,1.971,0,0,1-1.179.042q-3.01-.8-6.022-1.6A.813.813,0,0,1,0,104.476Z" transform="translate(0 -97.861)" fill="#707070"/>
    <path id="Path_383" data-name="Path 383" d="M0,174.495a.855.855,0,0,1,.615-.521,3.849,3.849,0,0,1,.9-.293,3.261,3.261,0,0,1,.906.222l3.926,1.041a3.12,3.12,0,0,0,1.864-.07q3.356-1.164,6.718-2.312a.535.535,0,0,1,.264-.012c.291.057.58.127.869.192a.626.626,0,0,1,.073,1.233q-4.009,1.38-8.019,2.758a6.461,6.461,0,0,1-.7.2,2.569,2.569,0,0,1-1.223-.172c-1.873-.492-3.743-.993-5.616-1.485A.8.8,0,0,1,0,174.787Z" transform="translate(0 -165.153)" fill="#707070"/>
    <path id="Path_384" data-name="Path 384" d="M0,244.953a.983.983,0,0,1,.707-.53,3.477,3.477,0,0,1,.81-.261,2.926,2.926,0,0,1,.812.2c1.387.365,2.773.734,4.161,1.095a2.889,2.889,0,0,0,1.7-.094q3.349-1.157,6.7-2.3a.682.682,0,0,1,.327-.017c.281.05.559.117.838.183a.628.628,0,0,1,.066,1.238l-7.1,2.44c-.459.158-.918.314-1.38.462a1.681,1.681,0,0,1-.958,0q-3.057-.808-6.115-1.616A.763.763,0,0,1,0,245.245Z" transform="translate(0 -232.624)" fill="#707070"/>
  </g>
</svg>
