<svg id="Group_322" data-name="Group 322" xmlns="http://www.w3.org/2000/svg" xmlns:xlink="http://www.w3.org/1999/xlink" width="19.457" height="17.166" viewBox="0 0 19.457 17.166">
  <defs>
    <clipPath id="clip-path">
      <rect id="Rectangle_189" data-name="Rectangle 189" width="19.457" height="17.166" fill="#7f839a"/>
    </clipPath>
  </defs>
  <g id="Group_321" data-name="Group 321" clip-path="url(#clip-path)">
    <path id="Path_371" data-name="Path 371" d="M19.456,5.767v.3c-.3.521-.663.568-1.09.14-.145-.145-.288-.292-.468-.474v.277q0,5.253,0,10.506a.575.575,0,0,1-.64.645H13.913c-.061,0-.122-.006-.194-.009v-.24q0-2.945,0-5.889c0-.48-.217-.7-.691-.7H6.435c-.479,0-.7.217-.7.694q0,2.954,0,5.909v.237H2.244c-.476,0-.684-.206-.684-.677q0-5.244,0-10.487V5.786l-.049-.019c-.165.173-.327.35-.5.519A.575.575,0,1,1,.2,5.48Q2.274,3.4,4.355,1.332a.787.787,0,0,1,.358-.195Q7.128.568,9.548.02a.827.827,0,0,1,.354,0c1.583.358,3.164.725,4.746,1.086a1.06,1.06,0,0,1,.536.3q1.976,1.987,3.959,3.967a4.179,4.179,0,0,1,.313.4M9.718,5.388c.36,0,.721,0,1.081,0a.574.574,0,1,0,0-1.14q-1.072,0-2.143,0a.574.574,0,1,0,0,1.14c.354,0,.708,0,1.062,0m.023,1.139c-.36,0-.721,0-1.081,0a.574.574,0,1,0-.007,1.14q1.072,0,2.143,0a.574.574,0,1,0,.007-1.14c-.354,0-.708,0-1.062,0" transform="translate(0 0)" fill="#7f839a"/>
    <path id="Path_372" data-name="Path 372" d="M157.1,226.148l-1.981,1.982-1.982-1.982Z" transform="translate(-145.361 -214.668)" fill="#7f839a"/>
    <path id="Path_373" data-name="Path 373" d="M135.675,247.647V243.72l1.964,1.964-1.964,1.963" transform="translate(-128.788 -231.348)" fill="#7f839a"/>
    <path id="Path_374" data-name="Path 374" d="M210.884,243.434v3.927L208.92,245.4l1.964-1.964" transform="translate(-198.315 -231.077)" fill="#7f839a"/>
    <path id="Path_375" data-name="Path 375" d="M152.424,300.934l1.979-1.978,1.978,1.978Z" transform="translate(-144.687 -283.78)" fill="#7f839a"/>
  </g>
</svg>
