<svg id="Group_403" data-name="Group 403" xmlns="http://www.w3.org/2000/svg" xmlns:xlink="http://www.w3.org/1999/xlink" width="18.424" height="20.956" viewBox="0 0 18.424 20.956">
  <defs>
    <clipPath id="clip-path">
      <rect id="Rectangle_190" data-name="Rectangle 190" width="18.424" height="20.956" fill="#46bc5c"/>
    </clipPath>
  </defs>
  <g id="Group_323" data-name="Group 323" clip-path="url(#clip-path)">
    <path id="Path_376" data-name="Path 376" d="M0,298.927V297.7H2.562l.913-4.7c.225.2.419.374.624.541a9.109,9.109,0,0,0,3.979,1.9c.141.029.182.1.2.232.079.668.168,1.335.256,2.016h2.531v1.234Z" transform="translate(0 -277.971)" fill="#46bc5c"/>
    <path id="Path_377" data-name="Path 377" d="M45.231,69.007c.309-.314.6-.6.87-.891a.272.272,0,0,0,.03-.229,1.828,1.828,0,0,1,1.86-2.47,1.842,1.842,0,1,1-.308,3.672c-.166-.02-.325-.1-.491-.132a.255.255,0,0,0-.2.031c-.3.279-.587.569-.889.866l2.625,2.621,2.593,2.589a8.011,8.011,0,0,1-11.31-11.275l5.218,5.218" transform="translate(-36.17 -60.516)" fill="#46bc5c"/>
    <path id="Path_378" data-name="Path 378" d="M234.574,6.729h-1.218a5.535,5.535,0,0,0-5.515-5.518V0a6.7,6.7,0,0,1,6.733,6.725" transform="translate(-216.15 0)" fill="#46bc5c"/>
    <path id="Path_379" data-name="Path 379" d="M232.061,52.222h-1.184a3.144,3.144,0,0,0-3.087-3.092V47.959a4.216,4.216,0,0,1,4.271,4.263" transform="translate(-216.101 -45.489)" fill="#46bc5c"/>
  </g>
</svg>
