<svg id="Group_937" data-name="Group 937" xmlns="http://www.w3.org/2000/svg" xmlns:xlink="http://www.w3.org/1999/xlink" width="72.316" height="80" viewBox="0 0 72.316 80">
  <defs>
    <clipPath id="clip-path">
      <rect id="Rectangle_3423" data-name="Rectangle 3423" width="72.316" height="80" fill="#46bc5c"/>
    </clipPath>
  </defs>
  <g id="Group_657" data-name="Group 657" clip-path="url(#clip-path)">
    <path id="Path_466" data-name="Path 466" d="M13.35,126.693a8.63,8.63,0,0,1-3.779-1.745,7.239,7.239,0,0,1-2.258-3.575c-.528-1.9-1-3.823-1.495-5.734a1.18,1.18,0,0,1,.493-1.43c.7-.447,1.5-.063,1.764.883.472,1.7.908,3.416,1.354,5.126.839,3.22,3.182,4.636,6.422,3.89,2.178-.5,4.362-.982,6.541-1.482a5.214,5.214,0,0,0,3.774-6.767c-2.355-6.361-4.751-12.706-7.131-19.058-.045-.119-.1-.234-.18-.421l-5.24,1.491c-1.4.4-2.8.789-4.2,1.195a5.073,5.073,0,0,0-3.762,6.619c.34,1.335.689,2.668,1.022,4,.218.875-.094,1.5-.8,1.671-.658.154-1.225-.244-1.444-1.082-.427-1.634-.877-3.264-1.223-4.916a7.39,7.39,0,0,1,5.468-8.52c3.281-.908,6.575-1.784,9.809-2.839a27.936,27.936,0,0,0,4.257-2.086c.167-.088.238-.486.239-.742.016-3.254,0-6.509.016-9.763.016-2.534,1.333-4.481,3.652-4.848a17.4,17.4,0,0,1,5.346,0c2.286.36,3.619,2.307,3.667,4.773.023,1.195,0,2.39,0,3.734a18.5,18.5,0,0,0,1.91-1.044c.181-.126.214-.549.215-.837q.021-5.35.006-10.7a5.346,5.346,0,0,1,2.945-5.186c2.632-1.371,6.882-.643,8.573,1.442a5.857,5.857,0,0,1,1.171,3.872q0,11.56,0,23.119v.883a.987.987,0,0,0,.171.049c1.947-.128,1.947-.128,1.947-2.038q0-16.675,0-33.351a5.442,5.442,0,0,1,2.042-4.67,4.5,4.5,0,0,1,1.711-.881c2.16-.438,4.354-.661,6.377.5a4.736,4.736,0,0,1,2.482,3.924c.089,1.3.075,2.6.059,3.9-.01.836-.456,1.282-1.157,1.279s-1.126-.448-1.152-1.29c-.031-.988,0-1.979-.014-2.968A2.961,2.961,0,0,0,59.661,57.8c-.651,0-1.3-.02-1.952.014a2.861,2.861,0,0,0-2.685,2.405,5.11,5.11,0,0,0-.076.854q-.006,16.871,0,33.742c0,.129.014.259.029.526a7.978,7.978,0,0,0,1.044-.52c2.195-1.535,4.39-3.072,6.548-4.658a1.4,1.4,0,0,0,.365-1.006c.021-6.457.015-12.913.018-19.37a6.463,6.463,0,0,1,.061-1.01,1.032,1.032,0,0,1,1.1-.915,1.047,1.047,0,0,1,1.129.967,6.974,6.974,0,0,1,.046.934q0,8.709,0,17.418v.887A22.016,22.016,0,0,1,68.108,87a5.29,5.29,0,0,1,6.032,2.79,5.179,5.179,0,0,1-.956,6.571c-1.668,1.563-3.488,2.966-5.257,4.421-2.693,2.216-5.386,4.433-8.106,6.616a14.834,14.834,0,0,1-5.9,2.731q-12.2,2.976-24.389,5.962c-.224.055-.444.129-.6.175a23.428,23.428,0,0,1-.279,3.192,6.569,6.569,0,0,1-4.8,5.167c-2.694.771-5.459,1.292-8.192,1.926-.15.035-.294.093-.441.141Zm14.655-12.651c.191-.04.315-.062.437-.092,7.875-1.927,15.746-3.872,23.627-5.773a15.545,15.545,0,0,0,6.475-2.733q6.287-5.138,12.551-10.3a4.225,4.225,0,0,0,.817-.938,3.212,3.212,0,0,0-2.614-5,4.9,4.9,0,0,0-2.3.768c-3.062,2.065-6.069,4.212-9.085,6.346a13.144,13.144,0,0,1-6.9,2.669c-3.453.176-6.919.1-10.38.1a2.37,2.37,0,0,1-2.347-1.734,2.48,2.48,0,0,1,.767-2.828c.643-.568,1.32-1.1,1.988-1.637a9.147,9.147,0,0,0,3.192-5.393,2.291,2.291,0,0,0-1.664-2.71,2.628,2.628,0,0,0-2.079.4q-9.4,4.988-18.8,9.984c-.2.107-.392.236-.622.376l6.937,18.5M40.378,96.52l.093.194c.28.018.561.05.841.051,1.977.007,3.956-.024,5.932.026.719.018.913-.194.911-.913-.026-7.78-.016-15.56-.018-23.34a6.286,6.286,0,0,0-.042-.778,2.926,2.926,0,0,0-2.928-2.693c-.52-.022-1.041-.008-1.561-.007-2.324,0-3.456,1.121-3.462,3.441-.008,3.123,0,6.245,0,9.367,0,.247.022.495.036.785.347-.08.6-.139.847-.194a4.591,4.591,0,0,1,5.533,5.216,15.688,15.688,0,0,1-1.106,3.393c-.9,2.079-2.634,3.444-4.361,4.8-.254.2-.478.435-.715.655m-15-6.116c.1.01.164.035.2.016,2.479-1.305,4.959-2.609,7.426-3.936a.733.733,0,0,0,.308-.542c.02-1.636.055-3.275-.012-4.909a2.355,2.355,0,0,0-2.449-2.313c-.883-.021-1.766-.008-2.65-.006-1.974.005-2.859.877-2.864,2.842q-.01,4.092,0,8.184c0,.224.026.448.04.665" transform="translate(-2.58 -46.693)" fill="#46bc5c"/>
    <path id="Path_467" data-name="Path 467" d="M23.05,19.576a5.866,5.866,0,0,1-.543.744q-8,8.071-16,16.133c-1.1,1.109-2.3,1.775-3.907,1.257A3.571,3.571,0,0,1,.879,31.924c.164-.2.345-.389.528-.574q9.019-9.093,18.041-18.183c1.784-1.8,3.047-1.992,5.311-.824.947.488,1.886,1,2.85,1.447a.81.81,0,0,0,.725-.066c2.173-2.058,4.321-4.144,6.472-6.226.048-.047.067-.125.02-.034A11.9,11.9,0,0,1,32.2,6.293a3.235,3.235,0,0,1-.9-3.838A3.221,3.221,0,0,1,34.365.066q5.033-.127,10.072,0A3.19,3.19,0,0,1,47.616,3.37q.077,4.919.005,9.839A3.508,3.508,0,0,1,44.4,16.637a3.223,3.223,0,0,1-3.668-2.543c-.17-.586-.243-1.2-.373-1.869-.228.2-.44.38-.638.571q-4.081,3.924-8.159,7.851c-1.648,1.583-3,1.778-5.014.739-1.107-.57-2.211-1.145-3.495-1.81M45.3,8.3h0c0-1.561.014-3.123-.005-4.684-.011-.873-.374-1.245-1.243-1.249q-4.606-.023-9.213,0a1.259,1.259,0,1,0,0,2.5c.937.019,1.874.013,2.81,0a1.327,1.327,0,0,1,1.422.731,1.254,1.254,0,0,1-.47,1.514q-4.671,4.492-9.332,8.993a1.413,1.413,0,0,1-1.837.253C26.118,15.67,24.8,15,23.479,14.322c-1.157-.593-1.31-.566-2.23.36Q12.2,23.8,3.154,32.912a5.491,5.491,0,0,0-.48.512,1.249,1.249,0,0,0,1.83,1.7c.193-.174.37-.366.553-.551q8.361-8.422,16.721-16.844c.81-.816,1.123-.866,2.126-.353,1.226.627,2.448,1.263,3.672,1.894,1.189.613,1.421.581,2.4-.356q5.262-5.059,10.519-10.124c.45-.434.91-.808,1.583-.505s.727.879.719,1.508c-.013.989-.01,1.978,0,2.967s.482,1.557,1.257,1.555,1.243-.579,1.248-1.563c.008-1.483,0-2.967,0-4.45" transform="translate(0 0)" fill="#46bc5c"/>
    <path id="Path_468" data-name="Path 468" d="M68.2,426.951a4.587,4.587,0,0,1-4.568-4.642,4.606,4.606,0,1,1,4.568,4.642m.046-2.342a2.268,2.268,0,0,0,2.257-2.286,2.311,2.311,0,0,0-2.244-2.24,2.278,2.278,0,0,0-2.282,2.266,2.239,2.239,0,0,0,2.27,2.26" transform="translate(-53.653 -352.233)" fill="#46bc5c"/>
  </g>
</svg>
