<svg xmlns="http://www.w3.org/2000/svg" width="20.589" height="23.53" viewBox="0 0 20.589 23.53">
  <path id="Icon_awesome-address-book" data-name="Icon awesome-address-book" d="M20.037,7.353a.553.553,0,0,0,.551-.551V4.963a.553.553,0,0,0-.551-.551h-.919V2.206A2.207,2.207,0,0,0,16.912,0H2.206A2.207,2.207,0,0,0,0,2.206V21.324A2.207,2.207,0,0,0,2.206,23.53H16.912a2.207,2.207,0,0,0,2.206-2.206V19.118h.919a.553.553,0,0,0,.551-.551V16.729a.553.553,0,0,0-.551-.551h-.919V13.236h.919a.553.553,0,0,0,.551-.551V10.846a.553.553,0,0,0-.551-.551h-.919V7.353ZM9.559,5.883A2.941,2.941,0,1,1,6.618,8.824,2.944,2.944,0,0,1,9.559,5.883Zm5.147,10.883a.964.964,0,0,1-1.029.882H5.441a.964.964,0,0,1-1.029-.882v-.882A2.894,2.894,0,0,1,7.5,13.236h.23a4.734,4.734,0,0,0,3.658,0h.23a2.894,2.894,0,0,1,3.088,2.647Z" fill="#7f839a"/>
</svg>
