<svg xmlns="http://www.w3.org/2000/svg" width="27.498" height="27.498" viewBox="0 0 27.498 27.498">
  <path id="Icon_awesome-plus-circle" data-name="Icon awesome-plus-circle" d="M14.312.562A13.749,13.749,0,1,0,28.061,14.311,13.747,13.747,0,0,0,14.312.562Zm7.983,15.3a.667.667,0,0,1-.665.665h-5.1v5.1a.667.667,0,0,1-.665.665h-3.1a.667.667,0,0,1-.665-.665v-5.1h-5.1a.667.667,0,0,1-.665-.665v-3.1a.667.667,0,0,1,.665-.665h5.1v-5.1a.667.667,0,0,1,.665-.665h3.1a.667.667,0,0,1,.665.665v5.1h5.1a.667.667,0,0,1,.665.665Z" transform="translate(-0.563 -0.563)" fill="#46bc5c"/>
</svg>
