<svg xmlns="http://www.w3.org/2000/svg" width="20.5" height="20.5" viewBox="0 0 20.5 20.5">
  <path id="Icon_awesome-phone-alt" data-name="Icon awesome-phone-alt" d="M19.915,14.486l-4.484-1.922a.961.961,0,0,0-1.121.276l-1.986,2.426A14.841,14.841,0,0,1,5.229,8.173L7.655,6.187a.959.959,0,0,0,.276-1.121L6.01.581a.967.967,0,0,0-1.1-.557L.745.986A.961.961,0,0,0,0,1.922,18.576,18.576,0,0,0,18.578,20.5a.961.961,0,0,0,.937-.745l.961-4.164a.973.973,0,0,0-.561-1.105Z" transform="translate(0 0)" fill="#7f839a"/>
</svg>
