<svg xmlns="http://www.w3.org/2000/svg" width="20.405" height="27.206" viewBox="0 0 20.405 27.206">
  <path id="Icon_awesome-file-video" data-name="Icon awesome-file-video" d="M20.4,6.48V6.8H13.6V0h.322a1.276,1.276,0,0,1,.9.374l5.2,5.2a1.276,1.276,0,0,1,.373.9Zm-8.5.747V0H1.275A1.275,1.275,0,0,0,0,1.275V25.931a1.275,1.275,0,0,0,1.275,1.275H19.129A1.275,1.275,0,0,0,20.4,25.931V8.5H13.178A1.279,1.279,0,0,1,11.9,7.227ZM17,14.879v5.949a1.276,1.276,0,0,1-2.177.9L11.9,18.808V20.83a1.275,1.275,0,0,1-1.275,1.275H4.676A1.275,1.275,0,0,1,3.4,20.83V14.878A1.275,1.275,0,0,1,4.676,13.6h5.951A1.275,1.275,0,0,1,11.9,14.878V16.9l2.924-2.923A1.276,1.276,0,0,1,17,14.879Z" fill="#7f839a"/>
</svg>
