<svg id="Group_405" data-name="Group 405" xmlns="http://www.w3.org/2000/svg" xmlns:xlink="http://www.w3.org/1999/xlink" width="15.751" height="17.816" viewBox="0 0 15.751 17.816">
  <defs>
    <clipPath id="clip-path">
      <rect id="Rectangle_28" data-name="Rectangle 28" width="15.751" height="17.816" fill="#46bc5c"/>
    </clipPath>
  </defs>
  <g id="Group_18" data-name="Group 18" clip-path="url(#clip-path)">
    <path id="Path_57" data-name="Path 57" d="M56.793,0c.3.055.6.093.891.169a2.314,2.314,0,0,0,1.157,0A8.622,8.622,0,0,1,59.777.03a.7.7,0,0,1,.716.363,4.212,4.212,0,0,1,.436.9c.146.481.236.98.334,1.475a.245.245,0,0,0,.185.221c.576.206,1.154.41,1.718.647a3.975,3.975,0,0,1,.743.445.671.671,0,0,1,.323.635c-.021.222-.08.294-.309.258-.405-.064-.805-.169-1.212-.219-.963-.117-1.926-.258-2.894-.3-1.111-.052-2.227-.036-3.339-.006a20.094,20.094,0,0,0-3.845.493.275.275,0,0,1-.078.02c-.134-.014-.363,0-.383-.054a.668.668,0,0,1,0-.5,1.507,1.507,0,0,1,.476-.479A8.635,8.635,0,0,1,54.894,3a.282.282,0,0,0,.227-.257A6.8,6.8,0,0,1,55.763.77,2.7,2.7,0,0,1,56.007.4a.886.886,0,0,1,.786-.4" transform="translate(-49.301)" fill="#46bc5c"/>
    <path id="Path_58" data-name="Path 58" d="M108.885,93.284a3.406,3.406,0,0,1-6.746.9,6.8,6.8,0,0,1-.053-.7c-.017-.176.061-.236.229-.244.889-.042,1.778-.107,2.667-.131a25.421,25.421,0,0,1,3.9.181" transform="translate(-96.556 -88.053)" fill="#46bc5c"/>
    <path id="Path_59" data-name="Path 59" d="M2.524,128.915H1.647v-7.2c-.168,0-.314.005-.46,0A1.188,1.188,0,0,1,.01,120.534c-.018-.9-.008-1.8-.006-2.7,0-.237.135-.386.327-.379s.317.158.318.4c0,.865,0,1.729,0,2.594a.57.57,0,0,0,.393.595.632.632,0,0,0,.119.013v-.229q0-1.408,0-2.817c0-.054,0-.108,0-.162.009-.237.136-.389.325-.389s.321.147.322.387c0,.986,0,1.973,0,2.959,0,.08,0,.16,0,.256H2.37v-.241q0-1.479,0-2.959c0-.153.033-.3.181-.353a.372.372,0,0,1,.314.019.527.527,0,0,1,.145.346c.011.986.006,1.973.006,2.959v.218a.56.56,0,0,0,.6-.619c0-.811,0-1.621,0-2.432,0-.061,0-.122,0-.182a.329.329,0,0,1,.307-.358.339.339,0,0,1,.335.356c0,.135,0,.27,0,.405,0,.736,0,1.473,0,2.209A1.231,1.231,0,0,1,3,121.723c-.154,0-.308,0-.48,0Z" transform="translate(0 -111.1)" fill="#46bc5c"/>
    <path id="Path_60" data-name="Path 60" d="M123.307,185.047h-4.335l-.349-3.387c.366-.075.723-.162,1.086-.22a9.3,9.3,0,0,1,3.752.168c.164.041.2.109.182.262-.09.831-.172,1.663-.258,2.494-.023.221-.049.441-.076.682" transform="translate(-112.201 -171.507)" fill="#46bc5c"/>
    <path id="Path_61" data-name="Path 61" d="M224.879,196.332l.316-3.061a9.337,9.337,0,0,1,.97.407c.529.294,1.05.607,1.549.948a1.638,1.638,0,0,1,.736,1.394c.01,1.1,0,2.2,0,3.3a.759.759,0,0,1-.017.109c-.064,0-.123.011-.182.011-.756,0-1.512,0-2.268,0-.154,0-.2-.043-.222-.2-.1-.809-.214-1.617-.327-2.424-.047-.336-.134-.41-.559-.489" transform="translate(-212.705 -182.808)" fill="#46bc5c"/>
    <path id="Path_62" data-name="Path 62" d="M56.6,193.731l.317,3.034c-.05.011-.086.023-.124.027a.428.428,0,0,0-.427.426q-.165,1.222-.334,2.443c-.009.066-.028.131-.044.205H54.151c0-.072-.011-.137-.011-.2,0-1.492,0-2.984,0-4.476a.287.287,0,0,1,.14-.281,11.4,11.4,0,0,1,2.321-1.178" transform="translate(-51.206 -183.243)" fill="#46bc5c"/>
    <path id="Path_63" data-name="Path 63" d="M208.79,257.231a.337.337,0,0,1-.326-.322.318.318,0,0,1,.32-.32.31.31,0,0,1,.322.314.327.327,0,0,1-.316.327" transform="translate(-197.178 -242.698)" fill="#46bc5c"/>
    <path id="Path_64" data-name="Path 64" d="M110.637,256.59a.319.319,0,0,1,.323.317.341.341,0,0,1-.324.324.321.321,0,0,1-.316-.325.307.307,0,0,1,.318-.316" transform="translate(-104.347 -242.699)" fill="#46bc5c"/>
  </g>
</svg>
