<svg xmlns="http://www.w3.org/2000/svg" width="23.048" height="26" viewBox="0 0 23.048 26">
  <path id="Icon_material-date-range" data-name="Icon material-date-range" d="M12.183,14.7H9.622v2.6h2.561Zm5.122,0H14.743v2.6H17.3Zm5.122,0H19.865v2.6h2.561Zm2.561-9.1h-1.28V3H21.146V5.6H10.9V3H8.341V5.6H7.061A2.569,2.569,0,0,0,4.513,8.2L4.5,26.4A2.58,2.58,0,0,0,7.061,29H24.987a2.588,2.588,0,0,0,2.561-2.6V8.2A2.588,2.588,0,0,0,24.987,5.6Zm0,20.8H7.061V12.1H24.987Z" transform="translate(-4.5 -3)" fill="#7f839a"/>
</svg>
