<svg xmlns="http://www.w3.org/2000/svg" width="22.956" height="22.956" viewBox="0 0 22.956 22.956">
  <path id="Icon_awesome-product-hunt" data-name="Icon awesome-product-hunt" d="M15.294,10.319a1.724,1.724,0,0,1-1.722,1.722H10.319V8.6h3.254A1.724,1.724,0,0,1,15.294,10.319Zm8.224,1.722A11.478,11.478,0,1,1,12.04.563,11.476,11.476,0,0,1,23.518,12.04ZM17.59,10.319A4.02,4.02,0,0,0,13.572,6.3H8.023V17.779h2.3V14.336h3.254A4.02,4.02,0,0,0,17.59,10.319Z" transform="translate(-0.563 -0.563)" fill="#7f839a"/>
</svg>
